<svg xmlns="http://www.w3.org/2000/svg" height="34.187" width="90.342"><defs><clipPath id="A"><path d="M0 25.64h67.757V0H0z"/></clipPath></defs><g clip-path="url(#A)" transform="matrix(1.333333 0 0 -1.333333 0 34.1872)" fill="#cdcdcd"><path d="M11.14 7.998v.544c1.595.117 1.75.234 1.75 1.887v7.78c0 1.653-.155 1.77-1.75 1.887v.544h5.154v-.544c-1.595-.117-1.75-.234-1.75-1.887v-7.78c0-1.672.155-1.77 1.75-1.887v-.544zm16.92 0v.505c1.147.118 1.36.195 1.36 1.576v3.248c0 1.38-.486 2.256-1.712 2.256-.7 0-1.44-.4-2.178-1 .04-.234.06-.448.06-.817V9.962c0-1.225.175-1.34 1.244-1.46v-.505h-4.162v.505c1.206.118 1.38.215 1.38 1.498v3.346c0 1.44-.505 2.236-1.692 2.236-.778 0-1.536-.525-2.12-1V10c0-1.264.156-1.38 1.1-1.498v-.505h-4.104v.505c1.284.118 1.46.234 1.46 1.498v4.026c0 1.245-.06 1.343-1.187 1.517v.448c.856.155 1.848.408 2.704.797v-1.575l1.42.992c.505.3.972.525 1.594.525.934 0 1.77-.584 2.16-1.595a17.89 17.89 0 0 0 1.615 1.089c.408.273.914.506 1.458.506 1.517 0 2.47-1.07 2.47-2.976V10c0-1.303.156-1.38 1.265-1.498v-.505zm9.88 4.668l-1.75-.817c-.76-.35-1.187-.72-1.187-1.42 0-1 .778-1.497 1.38-1.497.506.02 1.186.35 1.556.7zm1.42-4.9a1.59 1.59 0 0 0-.914.369c-.253.273-.37.545-.467.876-.778-.526-1.7-1.245-2.295-1.245-1.38 0-2.334 1.147-2.334 2.373 0 .953.506 1.555 1.575 1.925 1.167.4 2.587.914 3.015 1.264v.35c0 1.4-.66 2.198-1.634 2.198-.388 0-.68-.156-.875-.4-.253-.253-.428-.68-.583-1.283a.54.54 0 0 0-.564-.448c-.35 0-.856.4-.856.836 0 .292.253.506.622.78.545.388 1.8 1.147 2.917 1.36.584 0 1.167-.175 1.596-.525.68-.564.875-1.362.875-2.373v-3.618c0-.875.35-1.167.68-1.167.234 0 .506.097.7.214l.195-.505zm4.336 6.048c0-1.517.74-2.606 1.828-2.606.856.02 1.614.778 1.614 2.314s-.72 2.626-1.828 2.626c-.856 0-1.614-.817-1.614-2.334m.33-6.457c-.506-.4-.895-.953-.895-1.517 0-1.05 1.128-1.848 2.567-1.848 1.848 0 2.8.953 2.8 2.16 0 .662-.33 1.147-.895 1.38-.486.194-1.05.253-1.867.253-.934 0-1.36-.117-1.7-.428m6.106 9.005c-.174-.3-.563-.817-.875-.992l-1.108.058c.37-.427.583-1.03.583-1.73 0-2.1-1.75-3.112-3.403-3.112-.33 0-.68.06-.992.098-.272-.176-.583-.525-.583-.798 0-.4.35-.758 1.225-.758l2.042.02c1.206 0 2.8-.4 2.8-2.295 0-1.964-2.275-3.85-4.862-3.85-2.16 0-3.345 1.264-3.365 2.373 0 .428.176.797.467 1.1.4.4 1.148 1 1.614 1.362-.7.214-1.186.66-1.438 1.07-.176.3-.234.622-.215.816.778.292 1.4.797 1.712 1.187-.875.37-1.712 1.283-1.712 2.606 0 2.217 1.984 3.228 3.482 3.228.66 0 1.303-.175 1.867-.486a22.91 22.91 0 0 1 2.645.272zm2.198-2.742l3.287.06c.35 0 .467.116.467.4.02 1-.642 1.945-1.712 1.945-.895 0-1.75-.817-2.042-2.393m5.33-3.967c-1.225-1.537-2.567-1.887-3.17-1.887-2.392 0-3.793 1.945-3.793 4.143 0 1.342.487 2.528 1.284 3.403.797.895 1.848 1.42 2.86 1.42 1.614 0 2.917-1.44 2.917-2.956 0-.4-.097-.545-.447-.622-.33-.06-2.762-.253-5.077-.33.02-2.645 1.537-3.735 2.9-3.735.778 0 1.517.312 2.217.973z"/></g></svg>