<svg id="Layer_1" data-name="Layer 1" xmlns="http://www.w3.org/2000/svg" viewBox="0 0 200 200"><defs><style>.cls-1{fill:#fff;stroke:#000;stroke-miterlimit:10;stroke-width:7px;}.cls-2{fill:#666;}</style></defs><title>close_icon</title><circle class="cls-1" cx="100" cy="100" r="96.5"/><rect x="72.1" y="39.66" width="7" height="62" transform="translate(-27.82 74.16) rotate(-45)"/><rect x="125.84" y="93.4" width="7" height="62" transform="translate(-50.08 127.9) rotate(-45)"/><rect class="cls-2" x="120.9" y="98.34" width="7" height="62" transform="translate(-55.03 125.84) rotate(-45)"/><rect class="cls-2" x="67.16" y="44.6" width="7" height="62" transform="translate(-32.77 72.1) rotate(-45)"/><rect x="39.66" y="120.9" width="62" height="7" transform="translate(-67.27 86.4) rotate(-45)"/><rect x="93.4" y="67.16" width="62" height="7" transform="translate(-13.53 108.66) rotate(-45)"/><rect x="96.5" y="91.55" width="7" height="7" transform="translate(-37.92 98.55) rotate(-45)"/><rect x="91.55" y="96.5" width="7" height="7" transform="translate(-42.87 96.5) rotate(-45)"/><rect class="cls-2" x="98.34" y="72.1" width="62" height="7" transform="translate(-15.58 113.6) rotate(-45)"/><rect class="cls-2" x="44.6" y="125.84" width="62" height="7" transform="translate(-69.32 91.34) rotate(-45)"/><rect x="101.45" y="96.5" width="7" height="7" transform="translate(-39.97 103.5) rotate(-45)"/><rect class="cls-2" x="96.5" y="101.45" width="7" height="7" transform="translate(-44.92 101.45) rotate(-45)"/></svg>