<svg xmlns="http://www.w3.org/2000/svg" viewBox="0 0 187.9 187.9"><defs><style>.cls-1{fill:#ccc;}.cls-2{fill:#999;}.cls-3{fill:#f2f2f2;}.cls-4{fill:#333;}.cls-5{fill:#666;}.cls-6{fill:#1a1a1a;}.cls-7{fill:#4d4d4d;}</style></defs><title>cwheel</title><path d="M103,6.05V92.76l61.31-61.31A93.72,93.72,0,0,0,103,6.05Z" transform="translate(-6.05 -6.05)"/><path class="cls-1" d="M92.76,97,31.45,35.69A93.72,93.72,0,0,0,6.05,97Z" transform="translate(-6.05 -6.05)"/><path class="cls-2" d="M92.76,103H6.05a93.72,93.72,0,0,0,25.4,61.31Z" transform="translate(-6.05 -6.05)"/><path class="cls-3" d="M97,92.76V6.05a93.72,93.72,0,0,0-61.31,25.4Z" transform="translate(-6.05 -6.05)"/><path class="cls-4" d="M107.24,103l61.31,61.31A93.72,93.72,0,0,0,194,103Z" transform="translate(-6.05 -6.05)"/><path class="cls-5" d="M97,107.24,35.69,168.55A93.72,93.72,0,0,0,97,194Z" transform="translate(-6.05 -6.05)"/><path class="cls-6" d="M107.24,97H194a93.72,93.72,0,0,0-25.4-61.31Z" transform="translate(-6.05 -6.05)"/><path class="cls-7" d="M103,107.24V194a93.72,93.72,0,0,0,61.31-25.4Z" transform="translate(-6.05 -6.05)"/></svg>