<?xml version="1.0" encoding="utf-8"?>
<!-- Generator: Adobe Illustrator 25.0.1, SVG Export Plug-In . SVG Version: 6.00 Build 0)  -->
<svg version="1.1" baseProfile="tiny" id="Слой_1"
	 xmlns="http://www.w3.org/2000/svg" xmlns:xlink="http://www.w3.org/1999/xlink" x="0px" y="0px" viewBox="0 0 1080 1080"
	 overflow="visible" xml:space="preserve">
<g>
	<path d="M664.31,0c80,46,137.59,118.9,151.96,213.42c0.23,0.11,0.49,0.24,0.72,0.35L868.4,53.36C818.62,29.14,752.35,8.22,664.31,0
		z"/>
	<path d="M501.31,616.09c150.13,45.03,204.36,91.9,204.36,170.12c0,86.77-73.44,144.03-203.84,144.03
		c-46.8,0-91.97-6.22-133.87-16.29c32.3,90.65,133.98,134.29,230.69,134.29c81.48,0,155.53-21.83,216.11-54.34
		c67.45-59.54,98.18-138.89,98.18-220.06c0-165.33-100.32-254.34-301.13-319.11c-152.79-48.83-220.49-87.4-220.49-168.49
		c0-61.94,54.45-127.59,186.71-127.59c30.02,0,57.88,2.46,83.49,6.38C630.43,106.89,558.34,58.84,455.7,58.84
		c-79.55-0.79-145.96,24.5-185.68,45.18c-54.64,52.77-85.07,121.7-85.07,199.53C184.95,468.07,306.69,558.24,501.31,616.09z"/>
	<path d="M215.92,854.87c-0.39-0.22-0.81-0.44-1.19-0.66l-47.83,165.8c39.59,23.91,101.45,46.03,171.07,59.99
		C263.92,1023.82,221,944.07,215.92,854.87z"/>
</g>
</svg>
