<svg xmlns="http://www.w3.org/2000/svg">
    <symbol id="photo_icon_sample" viewBox="0 0 747 990">
    <path d="M543 22h182v195h22V0H543v22zM22 217l.1-194.8L204 22V0L0 .1V217h22zm182 508H22V557H0v190h204v-22zm521-168v168H543v22h204V557h-22zm-351.4-17.7c-95 0-172.4-75.6-172.4-168.6S278.6 202 373.6 202 546 277.7 546 370.7s-77.3 168.6-172.4 168.6zm0-330.3c-91.2 0-165.4 72.5-165.4 161.7s74.2 161.6 165.4 161.6S539 459.8 539 370.7 464.8 209 373.6 209z"/><circle cx="373.6" cy="370.7" r="128.2"/><path d="M430.1,323l-2,3.7a55.8,55.8,0,0,1,0,78l2,3.7a43.1,43.1,0,0,0,0-85.4Z" fill="#fff"/><path d="M373.6 774.4v193.5M337 805L200.2 941.8"/><path d="M562.7 923.9L430.1 791.3c21.6-10 35.5-25.5 35.5-42.9 0-.5-.1-1.1-.1-1.6H278.8v1.6c0 18.4 15.4 34.6 39 44.5l-42.5 42.6-90.7 90.6c-8.2 8.2-8.8 23.2 0 31.3s23.4 9.6 31.3 0c13.8-16.8 30.7-30.8 46.1-46.1l73.6-73.7L352 821v150c0 11.6 9.7 19.5 21.7 19s22.1-9.7 22.1-22.1L395 903v-84l45.8 45.5 90.6 90.7c8.2 8.2 23.2 8.8 31.3 0s8.7-22.6 0-31.3zM44 44v322h133c2.6-104.2 89.9-188 197-188s193.5 83.8 196 188h132V44zm563.4 95.9h-76.2c-15.5 0-27-12.6-27.7-27.6s13.2-27.7 27.7-27.7h76.2c15.5 0 27 12.7 27.7 27.7s-13.2 27.6-27.7 27.6z"/>
    </symbol>
	<symbol id="logo" viewBox="0 0 512 512">
		<circle style="fill:#F2F2F2;" cx="256" cy="256" r="256"/>
<path style="fill:#FCAB1A;" d="M255.997,0.001L255.997,0.001c-46.657,0-84.48,37.823-84.48,84.48v78.222
	c0,46.657,37.823,84.48,84.48,84.48l0,0c46.657,0,84.48-37.823,84.48-84.48V84.481C340.477,37.824,302.654,0.001,255.997,0.001z"/>
<path style="fill:#74AEE0;" d="M340.48,375.474v78.221c0,5.402-0.502,10.679-1.473,15.788c-2.299,12.173-7.21,23.427-14.137,33.144
	C302.958,508.74,279.865,512,256,512s-46.958-3.26-68.869-9.373c-6.928-9.718-11.839-20.971-14.137-33.155
	c-0.972-5.11-1.473-10.386-1.473-15.778v-78.221c0-9.07,1.432-17.795,4.075-25.987c8.307-25.767,28.662-46.122,54.429-54.429
	c5.35-1.735,10.93-2.936,16.687-3.563c3.051-0.345,6.154-0.512,9.289-0.512c3.145,0,6.238,0.167,9.289,0.512
	c5.757,0.627,11.337,1.829,16.687,3.563c25.767,8.317,46.111,28.662,54.429,54.429C339.048,357.679,340.48,366.404,340.48,375.474z"
	/>
<path style="fill:#F0E400;" d="M446.269,78.815L446.269,78.815c-32.992-32.992-86.481-32.992-119.473,0l-55.312,55.312
	c-32.992,32.992-32.992,86.481,0,119.473l0,0c32.992,32.992,86.481,32.992,119.473,0l55.312-55.312
	C479.26,165.296,479.26,111.806,446.269,78.815z"/>
<path style="fill:#A78DC4;" d="M256,382.788c-3.918,7.659-9.08,14.838-15.485,21.253l-55.317,55.317
	c-3.814,3.814-7.899,7.189-12.204,10.115c-10.71,7.314-22.737,11.88-35.088,13.709c-0.01,0-0.01,0-0.01,0
	c-39.372-20.501-72.746-50.949-96.799-88.012c0.794-15.12,5.632-30.062,14.514-43.081c2.926-4.294,6.301-8.391,10.115-12.204
	l55.317-55.306c30.772-30.783,79.381-32.852,112.546-6.196c2.393,1.912,4.702,3.981,6.917,6.196h0.01
	c2.215,2.215,4.284,4.524,6.196,6.917c3.636,4.514,6.729,9.32,9.289,14.336C268.34,329.916,268.34,358.703,256,382.788z"/>
<path style="fill:#B6D949;" d="M512,256c0,24.68-3.49,48.536-10.01,71.116c0,0.01,0,0.01,0,0.01
	c-11.975,12.654-27.805,21.598-45.61,24.963c-5.11,0.972-10.386,1.473-15.778,1.473h-78.221c-9.059,0-17.795-1.432-25.976-4.075
	c-12.884-4.148-24.409-11.316-33.761-20.668s-16.52-20.877-20.668-33.761c-1.735-5.35-2.936-10.93-3.563-16.687
	c-0.345-3.051-0.512-6.154-0.512-9.289c0-46.655,37.825-84.48,84.48-84.48h78.221c28.442,0,53.593,14.054,68.911,35.6
	c0,0,0,0,0,0.01C511.154,231.905,512,243.858,512,256z"/>
<path style="fill:#D884A9;" d="M234.099,269.082c0,3.145-0.167,6.249-0.512,9.3c-0.627,5.757-1.829,11.327-3.563,16.677
	c-8.307,25.767-28.662,46.122-54.429,54.429c-8.182,2.644-16.917,4.075-25.976,4.075H71.387c-5.392,0-10.668-0.502-15.778-1.473
	c-17-3.208-32.204-11.515-43.959-23.27c-0.554-0.554-1.097-1.108-1.63-1.682C3.49,304.556,0,280.68,0,256
	c0-12.152,0.846-24.106,2.487-35.798c-0.01-0.01,0-0.01,0-0.01c15.308-21.535,40.469-35.589,68.901-35.589h78.232
	C196.274,184.602,234.099,222.427,234.099,269.082z"/>
<path style="fill:#68C29A;" d="M470.904,395.17c-24.054,37.063-57.417,67.5-96.789,88.022c0,0,0,0-0.01,0
	c-12.351-1.829-24.377-6.395-35.098-13.709c-4.305-2.926-8.401-6.311-12.215-10.125l-55.306-55.317
	c-6.416-6.416-11.577-13.594-15.485-21.253c-6.175-12.048-9.258-25.255-9.258-38.484c0-13.208,3.082-26.436,9.258-38.473
	c2.55-5.016,5.653-9.822,9.289-14.336c1.912-2.393,3.981-4.702,6.196-6.917s4.535-4.294,6.928-6.207
	c33.165-26.645,81.763-24.576,112.546,6.207l55.306,55.306c3.814,3.814,7.189,7.91,10.115,12.204
	C465.272,365.108,470.11,380.05,470.904,395.17z"/>
<path style="fill:#F57858;" d="M240.509,253.599L240.509,253.599c32.992-32.992,32.992-86.481,0-119.473l-55.312-55.312
	c-32.992-32.992-86.481-32.992-119.473,0l0,0c-32.992,32.992-32.992,86.481,0,119.473l55.312,55.312
	C154.028,286.59,207.518,286.59,240.509,253.599z"/>
<path style="fill:#7DB400;" d="M456.34,186.108c-2.91,4.286-6.258,8.354-10.075,12.171l-55.319,55.319
	c-6.415,6.415-13.579,11.576-21.245,15.489c-24.092-12.328-52.878-12.328-76.97,0c-5.006-2.535-9.794-5.632-14.299-9.262
	c0.595-5.757,1.815-11.358,3.536-16.708c12.891-4.162,24.406-11.327,33.761-20.682c9.355-9.324,16.521-20.87,20.682-33.761
	c8.167-2.628,16.896-4.068,25.97-4.068h78.222C445.983,184.606,451.24,185.107,456.34,186.108z"/>
<path style="fill:#399752;" d="M446.264,339.893c3.817,3.817,7.165,7.885,10.075,12.171c-5.1,1.001-10.357,1.502-15.738,1.502
	h-78.222c-9.074,0-17.803-1.439-25.97-4.068c-8.323-25.782-28.661-46.12-54.442-54.442c-1.721-5.351-2.941-10.92-3.536-16.677
	c4.506-3.63,9.293-6.727,14.299-9.293c12.047,6.195,25.281,9.262,38.486,9.262c13.204,0,26.439-3.067,38.486-9.262
	c7.665,3.911,14.831,9.074,21.245,15.488L446.264,339.893z"/>
<path style="fill:#37769C;" d="M340.477,375.468v78.222c0,5.381-0.501,10.638-1.502,15.738c-4.286-2.91-8.354-6.258-12.171-10.075
	l-55.319-55.319c-6.415-6.415-11.576-13.579-15.489-21.245c12.328-24.092,12.328-52.878,0-76.97
	c2.565-5.006,5.632-9.794,9.293-14.299c5.757,0.595,11.327,1.815,16.677,3.536c4.162,12.891,11.327,24.437,20.682,33.761
	c9.355,9.355,20.87,16.521,33.761,20.682C339.038,357.697,340.477,366.426,340.477,375.468z"/>
<path style="fill:#E0B100;" d="M340.477,84.481v78.222c0,9.043-1.439,17.772-4.068,25.97c-25.782,8.323-46.12,28.661-54.442,54.442
	c-5.35,1.721-10.92,2.941-16.677,3.536c-3.661-4.506-6.727-9.293-9.293-14.299c12.328-24.092,12.328-52.878,0-76.97
	c3.911-7.665,9.074-14.831,15.489-21.245l55.319-55.319c3.817-3.817,7.885-7.165,12.171-10.075
	C339.976,73.843,340.477,79.1,340.477,84.481z"/>
<path style="fill:#055302;" d="M292.73,269.086c24.092-12.328,52.878-12.328,76.97,0c-12.047,6.195-25.281,9.262-38.486,9.262
	C318.012,278.348,304.776,275.281,292.73,269.086z"/>
<path style="fill:#548100;" d="M336.409,188.674c-4.162,12.891-11.327,24.437-20.682,33.761
	c-9.355,9.355-20.87,16.521-33.761,20.682C290.289,217.335,310.627,196.997,336.409,188.674z"/>
<path style="fill:#0C4422;" d="M281.967,295.056c25.782,8.323,46.12,28.661,54.442,54.442
	c-12.891-4.162-24.406-11.327-33.761-20.682C293.293,319.493,286.128,307.947,281.967,295.056z"/>
<path style="fill:#90FC9F;" d="M278.431,259.824c4.506,3.63,9.293,6.727,14.299,9.262c-5.006,2.565-9.794,5.663-14.299,9.293
	c-0.375-3.067-0.532-6.164-0.532-9.293S278.056,262.86,278.431,259.824z"/>
<path style="fill:#FFDC8D;" d="M281.967,243.116c-1.721,5.35-2.941,10.952-3.536,16.708c-2.41-1.909-4.725-4.005-6.946-6.227
	c-2.221-2.221-4.286-4.537-6.195-6.946C271.047,246.058,276.616,244.837,281.967,243.116z"/>
<path style="fill:#5BD3A2;" d="M278.431,278.38c0.595,5.757,1.815,11.327,3.536,16.677c-5.35-1.721-10.92-2.941-16.677-3.536
	c1.909-2.41,3.974-4.725,6.195-6.947C273.707,282.352,276.021,280.288,278.431,278.38z"/>
<path style="fill:#F9AF6B;" d="M265.289,246.652c-3.035,0.375-6.133,0.532-9.293,0.532c-3.161,0-6.258-0.157-9.293-0.532
	c3.66-4.506,6.727-9.293,9.293-14.299C258.562,237.359,261.629,242.147,265.289,246.652z"/>
<path style="fill:#75ADDF;" d="M255.997,290.988c3.16,0,6.258,0.157,9.293,0.532c-3.661,4.506-6.727,9.293-9.293,14.299
	c-2.565-5.006-5.632-9.794-9.293-14.299C249.739,291.145,252.837,290.988,255.997,290.988z"/>
<path style="fill:#A75000;" d="M255.997,155.383c12.328,24.092,12.328,52.878,0,76.97
	C243.669,208.261,243.669,179.475,255.997,155.383z"/>
<path style="fill:#231F63;" d="M255.997,305.82c12.328,24.092,12.328,52.878,0,76.97c-6.164-12.047-9.262-25.281-9.262-38.486
	C246.735,331.101,249.833,317.865,255.997,305.82z"/>
<path style="fill:#F95500;" d="M255.997,232.353c-2.565,5.006-5.632,9.794-9.293,14.299c-5.757-0.595-11.327-1.815-16.677-3.536
	c-8.323-25.782-28.661-46.12-54.442-54.442c-2.628-8.197-4.068-16.927-4.068-25.97V84.481c0-5.381,0.501-10.638,1.502-15.738
	c4.286,2.91,8.354,6.258,12.171,10.075l55.319,55.319c6.415,6.415,11.576,13.579,15.489,21.245
	C243.669,179.475,243.669,208.261,255.997,232.353z"/>
<path style="fill:#68549D;" d="M246.704,291.52c3.66,4.506,6.727,9.293,9.293,14.299c-6.164,12.047-9.262,25.281-9.262,38.486
	c0,13.204,3.098,26.439,9.262,38.486c-3.911,7.665-9.074,14.831-15.489,21.245l-55.319,55.319
	c-3.817,3.817-7.885,7.165-12.171,10.075c-1.001-5.1-1.502-10.357-1.502-15.738V375.47c0-9.043,1.439-17.772,4.068-25.97
	c25.782-8.323,46.12-28.661,54.442-54.442C235.378,293.335,240.947,292.115,246.704,291.52z"/>
<path style="fill:#FF6E7C;" d="M233.563,259.824c-0.595-5.757-1.815-11.358-3.536-16.708c5.351,1.721,10.92,2.941,16.677,3.536
	c-1.909,2.41-3.974,4.725-6.195,6.946S235.971,257.916,233.563,259.824z"/>
<path style="fill:#A18DC5;" d="M246.704,291.52c-5.757,0.595-11.327,1.815-16.677,3.536c1.721-5.351,2.941-10.92,3.536-16.677
	c2.41,1.909,4.725,3.974,6.946,6.195C242.73,286.796,244.796,289.111,246.704,291.52z"/>
<path style="fill:#D884A9;" d="M233.563,259.824c0.375,3.035,0.532,6.133,0.532,9.262s-0.157,6.227-0.532,9.293
	c-4.506-3.63-9.293-6.727-14.299-9.293C224.27,266.551,229.057,263.454,233.563,259.824z"/>
<path style="fill:#CE1501;" d="M230.027,243.116c1.721,5.35,2.941,10.952,3.536,16.708c-4.506,3.63-9.293,6.727-14.299,9.262
	c-24.092-12.328-52.878-12.328-76.97,0c-7.665-3.911-14.831-9.074-21.245-15.489l-55.32-55.318
	c-3.817-3.817-7.165-7.885-10.075-12.171c5.1-1.001,10.357-1.502,15.738-1.502h78.222c9.074,0,17.803,1.439,25.97,4.068
	C183.907,214.456,204.245,234.794,230.027,243.116z"/>
<path style="fill:#A93D64;" d="M233.563,278.38c-0.595,5.757-1.815,11.327-3.536,16.677c-25.782,8.323-46.12,28.661-54.442,54.442
	c-8.167,2.628-16.896,4.068-25.97,4.068H71.392c-5.381,0-10.638-0.501-15.738-1.502c2.91-4.286,6.258-8.354,10.075-12.171
	l55.319-55.319c6.415-6.415,13.579-11.576,21.245-15.489c24.092,12.359,52.878,12.359,76.97,0
	C224.27,271.652,229.057,274.75,233.563,278.38z"/>
<path style="fill:#AC0000;" d="M175.585,188.674c25.782,8.323,46.12,28.661,54.442,54.442
	C204.245,234.794,183.907,214.456,175.585,188.674z"/>
<path style="fill:#511031;" d="M230.027,295.056c-8.323,25.782-28.661,46.12-54.442,54.442
	C183.907,323.717,204.245,303.379,230.027,295.056z"/>
<path style="fill:#860700;" d="M142.293,269.086c24.092-12.328,52.878-12.328,76.97,0
	C195.171,281.445,166.385,281.445,142.293,269.086z"/>
<g>
</g>
<g>
</g>
<g>
</g>
<g>
</g>
<g>
</g>
<g>
</g>
<g>
</g>
<g>
</g>
<g>
</g>
<g>
</g>
<g>
</g>
<g>
</g>
<g>
</g>
<g>
</g>
<g>
</g>
	</symbol>
	<symbol id="whatsapp" viewBox="0 0 512 512">
		<g><g><path d="M417.103,92.845C374.08,49.721,316.787,26.001,255.897,26.001    c-125.678,0-227.946,102.269-227.946,227.945c0,40.146,10.474,79.37,30.394,113.973l-32.343,118.08l120.852-31.728    c33.268,18.173,70.744,27.724,108.941,27.724h0.103c125.576,0,230.101-102.269,230.101-227.945    C485.998,193.161,460.125,135.97,417.103,92.845z" style="fill:#2CB742;"/><path d="M255.897,443.593c-34.089,0-67.46-9.138-96.518-26.388l-6.879-4.107l-71.67,18.789l19.099-69.924    l-4.518-7.187c-18.995-30.188-28.956-64.995-28.956-100.83c0-104.424,85.018-189.44,189.545-189.44    c50.619,0,98.158,19.714,133.892,55.548c35.731,35.835,57.705,83.376,57.603,133.996    C447.495,358.578,360.319,443.593,255.897,443.593z" style="fill:#FFFFFF;"/><path d="M359.807,301.691c-5.647-2.872-33.677-16.635-38.914-18.48c-5.237-1.952-9.035-2.875-12.834,2.875    s-14.683,18.48-18.073,22.384c-3.285,3.799-6.674,4.312-12.321,1.437c-33.473-16.735-55.445-29.878-77.521-67.768    c-5.853-10.062,5.854-9.344,16.736-31.11c1.85-3.801,0.926-7.086-0.514-9.961c-1.436-2.875-12.834-30.906-17.557-42.304    c-4.62-11.089-9.343-9.549-12.835-9.754c-3.285-0.206-7.086-0.206-10.883-0.206c-3.8,0-9.96,1.438-15.197,7.085    c-5.236,5.75-19.92,19.51-19.92,47.541s20.432,55.139,23.205,58.937c2.874,3.798,40.148,61.299,97.338,86.045    c36.144,15.607,50.314,16.94,68.386,14.271c10.985-1.643,33.679-13.759,38.401-27.107c4.723-13.347,4.723-24.743,3.285-27.105    C369.255,305.901,365.454,304.465,359.807,301.691z" style="fill:#2CB742;"/></g></g>
	</symbol>
	<symbol id="viber" viewBox="0 0 512 512">
		<g><g><g><g><path d="M424.908,70.792c-11.407-10.509-57.582-44.018-160.53-44.466c0,0-121.363-7.276-180.473,46.983      c-32.879,32.877-44.467,81.118-45.725,140.856c-1.258,59.74-2.785,171.669,105.104,202.034h0.089l-0.089,46.353      c0,0-0.718,18.775,11.678,22.548c14.913,4.672,23.716-9.611,37.999-24.973c7.816-8.444,18.595-20.841,26.77-30.275      c73.842,6.2,130.528-7.994,136.995-10.059c14.913-4.851,99.265-15.632,112.919-127.563      C483.838,176.705,462.818,103.761,424.908,70.792z" style="fill:#FFFFFF;"/><path d="M160.549,496c-2.815,0-5.701-0.457-8.577-1.357c-15.426-4.694-19.009-22.399-18.688-32.274      l0.075-38.735C24.523,388.035,26.984,270.881,28.183,213.955c1.454-69.042,16.913-115.981,48.651-147.717      c0.101-0.101,0.204-0.199,0.309-0.295C126.247,20.867,214.267,16,249.831,16c8.225,0,13.559,0.257,14.849,0.327      c45.163,0.22,84.802,6.647,117.82,19.103c28.511,10.755,43.75,23.025,49.075,27.908c44.423,38.738,61.468,120.45,47.995,230.111      c-5.628,46.131-23.462,81.632-53.006,105.508c-23.991,19.389-49.515,25.887-61.78,29.009c-2.113,0.538-3.938,1.002-4.966,1.337      c-8.051,2.57-48.908,12.104-102.668,12.104c-0.004,0-0.006,0-0.009,0c-11.087,0-22.218-0.401-33.161-1.193      c-8.531,9.825-17.061,19.554-23.681,26.706c-2.291,2.464-4.45,4.915-6.538,7.284C183.888,485.413,174.562,496,160.549,496z       M145.777,406.512c1.738,0.442,3.35,1.342,4.629,2.623c1.876,1.88,2.972,4.429,2.967,7.084l-0.089,46.353      c0,0.121-0.002,0.242-0.007,0.362c-0.101,3.718,1.178,11.559,4.597,12.6c1.03,0.322,1.879,0.467,2.676,0.467      c4.978,0,11.107-6.959,18.206-15.016c2.175-2.47,4.424-5.022,6.883-7.667c7.266-7.85,17.048-19.065,26.536-30.015      c2.092-2.414,5.213-3.686,8.394-3.416c12.016,1.009,24.321,1.521,36.574,1.521c58.02,0.001,96.193-11.029,96.543-11.141      c1.597-0.52,3.612-1.032,6.165-1.683c24.142-6.146,88.269-22.471,99.868-117.565c6.646-54.099,5.751-100.623-2.662-138.286      c-7.387-33.07-20.772-58.795-38.71-74.395c-0.071-0.063-0.143-0.126-0.213-0.191c-7.494-6.904-50.131-41.369-153.799-41.821      c-0.185-0.001-0.369-0.007-0.554-0.018c-0.049-0.003-5.302-0.308-13.95-0.308c-33.184,0-115.042,4.34-159.006,44.532      c-27.757,27.861-41.311,70.401-42.646,133.844C46.974,271.543,44.741,377.919,145.777,406.512z" style="fill:#834995;"/></g><path d="M312.528,211.201c0.359,7.725-11.229,8.265-11.588,0.538     c-0.989-19.763-10.242-29.374-29.286-30.452c-7.726-0.45-7.007-12.038,0.628-11.588     C297.347,171.046,311.271,185.419,312.528,211.201z" style="fill:#834995;"/><path d="M330.765,221.351c0.897-38.089-22.907-67.913-68.094-71.236     c-7.636-0.539-6.827-12.128,0.81-11.589c52.103,3.774,79.86,39.617,78.872,83.095     C342.263,229.346,330.584,228.988,330.765,221.351z" style="fill:#834995;"/><path d="M372.986,233.389c0.089,7.726-11.589,7.815-11.589,0.09     c-0.539-73.213-49.317-113.099-108.518-113.548c-7.636-0.09-7.636-11.588,0-11.588     C319.086,108.792,372.357,154.516,372.986,233.389z" style="fill:#834995;"/><g><path d="M362.834,321.514v0.181c-9.702,17.068-27.848,35.934-46.533,29.915l-0.18-0.271      c-18.955-5.299-63.6-28.296-91.808-50.755c-14.553-11.499-27.849-25.063-38.09-38.089      c-9.252-11.589-18.594-25.334-27.667-41.862c-19.134-34.586-23.356-50.037-23.356-50.037      c-6.019-18.685,12.756-36.832,29.913-46.533h0.181c8.264-4.313,16.169-2.875,21.469,3.502c0,0,11.14,13.294,15.9,19.854      c4.492,6.108,10.511,15.899,13.655,21.379c5.48,9.791,2.065,19.763-3.324,23.894l-10.78,8.625      c-5.479,4.401-4.761,12.576-4.761,12.576s15.99,60.458,75.729,75.73c0,0,8.176,0.719,12.576-4.761l8.625-10.78      c4.131-5.39,14.104-8.803,23.895-3.323c13.206,7.455,30.004,19.044,41.144,29.555      C365.709,305.434,367.146,313.251,362.834,321.514L362.834,321.514z" style="fill:#FFFFFF;"/><path d="M323.543,362.754c-3.49,0-6.959-0.547-10.308-1.626c-0.575-0.186-1.128-0.421-1.653-0.702      c-21.672-6.679-66.06-30.173-93.498-52.019c-14.433-11.404-28.55-25.522-39.722-39.731      c-10.266-12.858-19.894-27.422-28.573-43.23c-18.375-33.216-23.487-49.633-24.161-51.949      c-7.652-24.158,13.814-46.407,34.563-58.138c0.524-0.296,1.072-0.543,1.636-0.74c4.211-2.009,8.489-3.026,12.734-3.026      c7.693,0,14.757,3.403,19.892,9.582c0.438,0.523,11.394,13.608,16.303,20.372c4.843,6.586,11.172,16.938,14.235,22.276      c0.018,0.031,0.035,0.062,0.053,0.093c8.148,14.558,3.065,29.713-5.873,36.642l-10.71,8.569      c-0.543,0.437-0.946,1.957-1.028,3.259c1.107,3.543,5.256,15.573,14.151,28.614c13.537,19.845,31.351,32.842,52.966,38.646      c1.508-0.071,2.983-0.512,3.41-1.044l8.559-10.698c4.751-6.126,12.957-9.927,21.451-9.927c5.195,0,10.448,1.403,15.19,4.057      c11.725,6.619,29.915,18.611,42.877,30.777c9.6,8.025,11.941,20.225,6.24,32.169c-0.198,0.571-0.449,1.126-0.751,1.655      C366.712,335.108,349.018,362.754,323.543,362.754z M320.706,342.452c0.935,0.202,1.872,0.302,2.837,0.302      c10.654,0,22.629-12.418,30.039-25.035c0.116-0.282,0.245-0.561,0.387-0.832c2.973-5.695,0.286-7.882-0.86-8.815      c-0.189-0.154-0.373-0.315-0.55-0.482c-10.922-10.305-27.557-21.549-39.197-28.12c-1.758-0.983-3.582-1.491-5.391-1.491      c-2.915,0-4.977,1.31-5.651,2.189c-0.042,0.056-0.085,0.11-0.128,0.164l-8.625,10.78c-6.194,7.714-15.653,8.545-19.433,8.545      c-0.937,0-1.59-0.049-1.827-0.069c-0.54-0.048-1.076-0.139-1.602-0.273c-64.685-16.537-82.206-80.161-82.92-82.862      c-0.146-0.551-0.244-1.114-0.294-1.682c-0.122-1.381-0.916-13.717,8.461-21.248l10.794-8.636      c0.054-0.043,0.109-0.086,0.164-0.128c1.282-0.983,3.822-5.418,0.705-11.032c-3.425-5.963-9.135-15.113-13.008-20.38      c-4.541-6.256-15.4-19.226-15.509-19.356c-1.787-2.15-3.443-2.396-4.536-2.396c-1.362,0-2.966,0.462-4.641,1.336      c-0.278,0.145-0.562,0.277-0.852,0.395c-14.52,8.482-28.096,22.58-24.351,34.207c0.046,0.142,0.088,0.286,0.128,0.43      c0.03,0.106,4.388,15.165,22.459,47.832c8.145,14.835,17.134,28.44,26.732,40.464c10.274,13.066,23.211,26.001,36.475,36.481      c28.271,22.51,71.861,44.375,88.301,48.971C319.473,341.893,320.106,342.143,320.706,342.452z" style="fill:#834995;"/></g></g></g></g>
	</symbol>
	<symbol id="telegram" viewBox="0 0 512 512">
		<g id="comp_x5F_335-telegram"><g><g><g><path d="M477.805,102.981l-67.327,317.515c-5.08,22.41-18.326,27.984-37.15,17.431l-102.585-75.596      l-49.497,47.607c-5.477,5.478-10.06,10.061-20.617,10.061l7.37-104.479l190.129-171.804c8.268-7.37-1.792-11.454-12.848-4.083      L150.233,287.633l-101.19-31.671c-22.011-6.873-22.408-22.012,4.581-32.568L449.419,70.911      C467.744,64.04,483.779,74.994,477.805,102.981z" style="fill:#FFFFFF;"/><path d="M389.819,453.082c-6.575,0-13.769-2.164-21.383-6.433c-0.36-0.202-0.709-0.427-1.042-0.672      l-95.797-70.595l-43.353,41.698c-5.775,5.774-12.978,12.918-27.617,12.918c-2.774,0-5.424-1.152-7.315-3.183      c-1.892-2.029-2.855-4.754-2.66-7.521l7.37-104.479c0.182-2.578,1.354-4.984,3.271-6.717l148.935-134.58L155.562,296.095      c-2.48,1.562-5.521,1.956-8.315,1.082l-101.19-31.672c-19.627-6.128-22.91-17.06-23.12-23.03      c-0.282-8.018,4.182-19.452,27.045-28.395l395.843-152.5c4.736-1.776,9.363-2.661,13.836-2.661      c9.022,0,16.929,3.631,22.264,10.225c4.812,5.947,9.699,17.007,5.66,35.926L420.26,422.57c-0.01,0.046-0.02,0.091-0.029,0.137      C414.239,449.135,398.605,453.081,389.819,453.082z M378.737,429.491c5.425,2.959,9.01,3.591,11.081,3.591      c1.865,0,7.536,0,10.892-14.731l67.313-317.444c1.842-8.628,1.24-15.615-1.647-19.184c-1.505-1.86-3.765-2.804-6.715-2.804      c-2.066,0-4.331,0.457-6.73,1.356L57.219,232.725c-9.771,3.822-13.369,7.515-14.161,8.964c0.74,0.919,3.25,2.943,8.965,4.728      l96.79,30.294l231.036-145.476c5.356-3.543,11.187-5.493,16.433-5.493c6.65,0,12.04,3.301,14.064,8.616      c1.015,2.663,2.503,9.632-5.564,16.823L217.69,320.239l-6.001,85.075c0.761-0.723,1.574-1.536,2.484-2.446      c0.046-0.046,0.093-0.092,0.14-0.137l49.497-47.607c3.509-3.376,8.941-3.734,12.865-0.844L378.737,429.491z" style="fill:#20A0E1;"/></g></g></g></g>
	</symbol>
	<symbol id="vk" viewBox="0 0 1024 1024">
		<g><path d="M983.766,312.727c-25.785-60.972-62.694-115.728-109.705-162.744   C827.05,102.966,772.299,66.049,711.329,40.257C648.194,13.548,581.14,0.004,512,0c-69.104,0-136.155,13.54-199.289,40.243   c-60.969,25.787-115.721,62.699-162.735,109.71c-47.014,47.011-83.929,101.761-109.72,162.728   C13.548,375.814,0.004,442.865,0,511.97c-0.004,69.109,13.533,136.165,40.234,199.304   c25.785,60.973,62.696,115.728,109.707,162.743c47.011,47.018,101.762,83.935,162.732,109.727   c63.136,26.708,130.19,40.253,199.323,40.257h0.009c69.104,0,136.153-13.54,199.288-40.243   c60.969-25.787,115.72-62.699,162.733-109.709c47.013-47.01,83.929-101.76,109.72-162.728   c26.708-63.134,40.251-130.186,40.255-199.29C1024.004,442.921,1010.467,375.866,983.766,312.727z M512.004,976.328h-0.03   c-124.026-0.007-240.627-48.313-328.323-136.019C95.957,752.604,47.665,635.999,47.672,511.973   c0.015-256.016,208.312-464.3,464.356-464.3c124.026,0.007,240.626,48.312,328.32,136.017   c87.695,87.706,135.986,204.311,135.979,328.337C976.313,768.043,768.018,976.328,512.004,976.328z" fill="#577fa8"/></g><g><path d="M154.504,399.328c7.7,20.099,17.191,39.48,26.987,58.622   c23.277,45.48,47.248,89.673,79.387,129.647c32.479,40.396,70.825,79.544,115.996,105.676c12.563,7.268,25.77,13.4,39.527,18.061   c53.079,17.979,111.295,16.267,129.273,4.281c17.979-11.986-3.424-90.75,12.842-100.167c16.267-9.418,45.375,11.13,66.777,29.965   c21.403,18.834,37.669,35.1,49.656,47.942c7.506,8.042,12.79,17.64,22.575,23.376c16.186,9.486,37.753,8.435,55.808,8.485   c10.065,0.029,20.133,0.063,30.199-0.063c6.803-0.084,13.608,0.136,20.406-0.193c11.171-0.542,25.779-4.952,24.941-18.927   c-0.198-3.304-0.931-7.256-2.244-10.306c-2.822-6.555-6.797-13.357-11.069-19.067c-22.258-29.75-37.026-44.946-48.155-56.933   c-11.13-11.984-56.933-55.22-59.929-63.78c-2.996-8.562-3.96-12.36,4.548-23.918c8.508-11.559,27.129-40.72,41.684-61.694   c9.128-13.155,17.42-26.91,25.612-40.659c9.659-16.21,18.743-32.813,26.485-50.029c3.462-7.698,6.604-14.711,4.46-23.337   c-1.437-5.779-4.687-10.856-10.739-12.282c-3.304-0.778-6.909-0.857-10.29-0.857c-12.627,0-45.589,0-45.589,0   c-5.958,0-11.917-0.087-17.876-0.076c-6.109,0.011-12.269-0.037-18.36,0.485c-8.666,0.742-13.977,7.425-18.336,14.163   c-5.333,8.245-10.187,16.823-15.36,25.172c-3.537,5.705-6.998,11.455-10.397,17.243c-5.312,9.04-10.784,17.983-16.256,26.927   c-2.271,3.71-4.55,7.416-6.789,11.146c-6.421,10.699-62.069,83.898-73.198,86.896s-14.982,2.142-14.982-20.547   c0-22.687,0-151.533,0-151.533s-0.854-9.935-10.272-9.935s-53.099,0-53.099,0h-90.09c0,0-21.188,0.088-13.697,19.138   c7.491,19.049,29.644,24.828,29.644,56.611c0,31.782,0,124.565,0,124.565s-3.745,27.931-27.931,4.815   c-19.059-18.215-34.762-39.751-48.637-62.081c-14.426-23.215-26.048-47.333-36.4-72.602c-2.961-7.227-5.893-14.466-8.934-21.659   c-3.174-7.509-6.319-15.031-9.363-22.593c-3.535-8.784-7.317-20.265-16.849-24.309c-4.792-2.033-10.092-1.933-15.2-1.932   c-18.943,0.005-37.885,0.058-56.827,0.022c-5.558-0.01-11.116-0.016-16.674-0.002c-13.123,0.031-29.445-0.356-32.558,16.038   c-1.794,9.443,1.772,19.523,4.757,28.367C151.321,391.511,152.99,395.375,154.504,399.328z" fill="#577fa8"/></g>
	</symbol>
	<symbol id="target" viewBox="0 0 64 64">
		<g><g><circle cx="31" cy="33" fill="#263238" r="29"/><circle cx="31" cy="33" fill="#039BE5" r="22"/><circle cx="31" cy="33" fill="#E53935" r="14"/><circle cx="31" cy="33" fill="#FFEB3B" r="7"/><path d="M31,63C14.5,63,1,49.6,1,33S14.5,3,31,3s30,13.5,30,30S47.5,63,31,63z M31,5C15.6,5,3,17.6,3,33    s12.6,28,28,28s28-12.6,28-28S46.4,5,31,5z" fill="#B3E5FC"/><path d="M42.8,21.2l2.6-4c1.8-2.7,3.1-5.7,4.1-8.8C50.1,6.4,52,5,54.2,5c1.3,0,2.5,0.5,3.4,1.4L42.8,21.2z" fill="#B71C1C"/><path d="M57.6,6.3c0.9,1,1.4,2.2,1.4,3.5c0,2.2-1.4,4.1-3.5,4.8c-3.1,1-6,2.3-8.8,4.1l-4,2.6L57.6,6.3z" fill="#E53935"/><rect fill="#BDBDBD" height="2" transform="matrix(0.7071 -0.7071 0.7071 0.7071 0.2407 37.5955)" width="41" x="25" y="17.5"/><path d="M57.2,28.2c-0.5,0-1-0.1-1.6-0.2c-3.1-1-6.3-1.6-9.5-1.7c-0.6,0-1-0.5-1-1c9.6-1.7,15.8-1.7,15.8-1.7    l1,0.1c-0.1,0.8-0.2,1.6-0.7,2.4C60.3,27.4,58.8,28.2,57.2,28.2z" fill="#18FFFF"/><path d="M38.7,19.1c-0.5,0-1-0.4-1-0.9c-0.2-2.8-1-5.9-2.3-9.4C34.6,6.6,35.3,4.3,37,3c1-0.8,2.3-1.1,3.5-1    C41,5.2,39.1,17.2,38.7,19.1C38.7,19,38.7,19.1,38.7,19.1z" fill="#18FFFF"/><path d="M33.9,30.1c4.9-8.1,7.4-17.6,7-27.1l-1,0c0.4,9.3-2,18.6-6.8,26.5c-0.6,0.6-2.8,2.8-2.8,2.8    c-0.9,0.9,0.5,2.4,1.4,1.4c0,0,2.3-2.3,2.9-2.9c7.9-4.8,17-7.2,26.4-6.8l0-1C51.5,22.7,42,25.1,33.9,30.1z" fill="#546E7A"/></g></g>
	</symbol>
	<symbol id="megaphone" viewBox="0 0 64 64">
		<g><circle cx="54" cy="54" fill="#f7d881" r="8"/><path d="m59.83 48.53a8 8 0 1 0 -10.7 11.81 14.82 14.82 0 0 0 10.7-11.81z" fill="#f9e09a"/><circle cx="54" cy="34" fill="#f7d881" r="8"/><path d="m59.83 28.53a8 8 0 1 0 -10.7 11.81 14.82 14.82 0 0 0 10.7-11.81z" fill="#f9e09a"/><path d="m33 47h5a4 4 0 0 0 4-4v-14h-6v10h-25a9 9 0 0 0 -9 9v14h31z" fill="#c7e2fb"/><path d="m24 39h-13a9 9 0 0 0 -9 9v10.94c.66 0 1.33.06 2 .06 14.5 0 26.67-8.51 30.06-20z" fill="#ebf7fe"/><path d="m25 48 3-9h-4l-5 6z" fill="#c7e2fb"/><g fill="#fddfb1"><path d="m10 26v2a9 9 0 0 0 9 9 9 9 0 0 0 9-9v-2h-6a6 6 0 0 1 -4.8-2.4l-1.2-1.6-1.2 1.6a6 6 0 0 1 -4.8 2.4z"/><path d="m19 37a8.94 8.94 0 0 1 -5-1.52v3.52l5 6 5-6v-3.52a8.94 8.94 0 0 1 -5 1.52z"/><path d="m10 28v-2h-1.5a2.5 2.5 0 0 0 0 5h2a9 9 0 0 1 -.5-3z"/></g><path d="m19 13a10 10 0 0 0 -10 10v3h1a6 6 0 0 0 4.8-2.4l1.2-1.6 1.2 1.6a6 6 0 0 0 4.8 2.4h7v-3a10 10 0 0 0 -10-10z" fill="#c18e5c"/><path d="m29.5 26h-1.5v2a9 9 0 0 1 -.52 3h2a2.5 2.5 0 0 0 0-5z" fill="#fddfb1"/><path d="m33.21 17.93 2.93-2.93 5.86 5.86-2.93 2.93a4.16 4.16 0 0 1 -5.86 0 4.16 4.16 0 0 1 0-5.86z" fill="#e47c6f"/><path d="m38 24.54v4.46h4v-8.14l-2.93 2.93a4.07 4.07 0 0 1 -1.07.75z" fill="#c1c8d1"/><path d="m36 15 3-8 11 11-8 3z" fill="#ebf7fe"/><path d="m42 10 .5-.5a3.54 3.54 0 0 1 5 0 3.54 3.54 0 0 1 0 5l-.5.5z" fill="#c1c8d1"/><path d="m10 39.06 3 8.94 6-3-5-6h-3a7.93 7.93 0 0 0 -1 .06z" fill="#c7e2fb"/><path d="m50.35 18.94a1 1 0 0 0 .36-1.65l-2.32-2.29a4.51 4.51 0 0 0 -6.39-6.39l-2.29-2.32a1 1 0 0 0 -1.65.36l-3 8-2.57 2.57a5.15 5.15 0 0 0 3.65 8.78 6.11 6.11 0 0 0 .86-.08v2.08h-1a1 1 0 0 0 -1 1v9h-10v-2a10 10 0 0 0 3.16-4h1.34a3.49 3.49 0 0 0 .5-6.95v-2.05a11 11 0 0 0 -22 0v2.05a3.49 3.49 0 0 0 .5 7h1.34a10 10 0 0 0 3.16 3.95v2h-2a10 10 0 0 0 -10 10v14a1 1 0 0 0 1 1h31a1 1 0 0 0 1-1v-14h4a5 5 0 0 0 5-5v-21.31zm-3.56-8.73a2.54 2.54 0 0 1 .21 3.36l-3.57-3.57a2.54 2.54 0 0 1 3.36.21zm-7.4-1.4 8.8 8.8-5.83 2.19-5.16-5.16zm-5.47 14.27a3.15 3.15 0 0 1 0-4.44l2.22-2.23 4.45 4.45-2.23 2.22a3.14 3.14 0 0 1 -4.44 0zm5.08 2.05a4.65 4.65 0 0 0 .78-.64l1.22-1.22v4.73h-2zm-25.47 14.87 3.89 4.67-3.84 1.92-2.19-6.59zm10.94 0h2.14l-2.19 6.59-3.84-1.92zm6.53-11.5a1.5 1.5 0 0 1 -1.5 1.5h-.7a10.2 10.2 0 0 0 .2-2v-1h.5a1.5 1.5 0 0 1 1.5 1.5zm-22.5 1.5a1.5 1.5 0 0 1 0-3h.5v1a10.2 10.2 0 0 0 .2 2zm1.5-7a9 9 0 0 1 18 0v2h-6a5 5 0 0 1 -4-2l-1.2-1.6a1 1 0 0 0 -1.6 0l-1.2 1.6a5 5 0 0 1 -4 2zm1 5v-1.07a7.06 7.06 0 0 0 4.6-2.73l.4-.53.4.53a7 7 0 0 0 5.6 2.8h5v1a8 8 0 0 1 -16 0zm8 10a9.92 9.92 0 0 0 4-.84v1.48l-4 4.8-4-4.8v-1.48a9.92 9.92 0 0 0 4 .84zm22 5a3 3 0 0 1 -3 3h-4v-2h-2v17h-23v-9h-2v9h-4v-13a8 8 0 0 1 6.34-7.82l2.71 8.14a1 1 0 0 0 .95.68 1 1 0 0 0 .45-.11l5.55-2.77 5.55 2.77a1 1 0 0 0 .45.11 1 1 0 0 0 .95-.68l2.77-8.32h7.28a1 1 0 0 0 1-1v-9h4z"/><path d="m50.38 3.5h4.24v2h-4.24z" transform="matrix(.707 -.707 .707 .707 12.19 38.44)"/><path d="m47 1h2v4h-2z"/><path d="m52 8h4v2h-4z"/><path d="m55 49h-2v2h-1a1 1 0 0 0 -.92.62 1 1 0 0 0 .21 1.09l2.3 2.29h-2.59v2h2v2h2v-2h1a1 1 0 0 0 .92-.62 1 1 0 0 0 -.21-1.09l-2.3-2.29h2.59v-2h-2z"/><path d="m54 45a9 9 0 1 0 9 9 9 9 0 0 0 -9-9zm0 16a7 7 0 1 1 7-7 7 7 0 0 1 -7 7z"/><path d="m53 29v2h-1a1 1 0 0 0 -.92.62 1 1 0 0 0 .21 1.09l2.3 2.29h-2.59v2h2v2h2v-2h1a1 1 0 0 0 .92-.62 1 1 0 0 0 -.21-1.09l-2.3-2.29h2.59v-2h-2v-2z"/><path d="m45 34a9 9 0 1 0 9-9 9 9 0 0 0 -9 9zm16 0a7 7 0 1 1 -7-7 7 7 0 0 1 7 7z"/></g>
	</symbol>
	<symbol id="Jackson" viewBox="0 0 512.22 436.45">
		<path d="M.62,468V31.59H512.84V468ZM387.78,197.85c-.82.28-1.88.35-2.39.91a17.41,17.41,0,0,0-2,3.32l-.87-.31c.26-1.69.38-3.42.79-5.07.83-3.34,2.06-6.67-1.63-9.21-.25-.18-.24-.74-.38-1.1-2.43-6.06-7.93-9.14-12.66-12.95-.45-.36-1.32-.19-2-.33-2.05-.46-4.38-.46-6.07-1.51-5.59-3.47-7.35-9.77-10.38-15.11-1.29-2.29-2-4.92-3.43-7.1a50.91,50.91,0,0,0-5.2-6,18.79,18.79,0,0,0-2.11-1.59c-.24,2.14-.49,3.65-.55,5.16-.07,1.85-.81,2.59-2.76,2.52a53.87,53.87,0,0,0-6.46.5c1.22,1.87,2,3.08,2.8,4.33.38.65,1,1.86.85,2-1.9,1.62-.26,2.62.61,3.61,1.64,1.85,3.43,3.56,5.13,5.35s3.57,3.84,5.36,5.76l-.4.19-10.17-5.89-.39.68,14,12.51c-3.67,1.85-5.86.08-8-1.71-1.07-.88-2.06-1.85-3.15-2.7-4.11-3.19-8.24-6.34-12.37-9.5l-.71.87c4.39,4.17,8.8,8.33,13.17,12.52a76.26,76.26,0,0,1,11.43,13.47,4.63,4.63,0,0,1-2.93-1c-3.33-3.33-6.31-6.86-11.35-8-2.79-.64-5.27-2.67-8-4.15,1,1.84,1.82,4,3.21,5.53,4.67,5.25,9.39,10.47,14.44,15.35a14.6,14.6,0,0,1,4.5,9.5c-5.43-.19-9-3.85-12.84-6.71s-7.49-6.45-11.21-9.71l-.54.58a13.25,13.25,0,0,0,1.52,2c3.57,3.28,7.22,6.47,10.78,9.76a98.13,98.13,0,0,1,8.74,8.43c2.89,3.41,3.27,7.77,3.71,12.16.68,6.77-.62,13.25-1.56,19.83a30.9,30.9,0,0,0-.17,8.64c.21,1.52.91,2.55-.32,3-.15,2.59-.31,5.18-.46,7.77l-.6-.21,2.71,3.52-.5.37-2.25-1.22a8.15,8.15,0,0,1-2.91,9.31c-.3,4-.56,7.54-.86,11.49l1.74.81c1.94-4.11,3.78-7.94,5.57-11.8.78-1.69,2-2.11,3.6-1.31s3,1.49,4.8,2.4c1.27-2.43,2.47-4.72,4-7.7a35.14,35.14,0,0,1,1.5,5.19c.06.36-1.33.93-2.11,1.43.36,1.39.75,2.87,1.26,4.87-3.34-1.36-1.94,1.28-2.2,1.7l-3,.83.06-.05c-2.75-2.6,1.25-2.38,1.55-3.68l-6.53-3.85-7.08,14.23a41.24,41.24,0,0,0-6.18-3.15c-3.28-1.06-6.85-1.32-10.07-2.53a95.77,95.77,0,0,1-10.77-5.28c-2.53-1.35-5-2.89-7.4-4.4-5.32-3.28-10.61-6.58-16.58-10.29,0,8-3.82,14.94-.63,22.23-4.21.56-4.71,1.26-4.23,5.69l2.88-.28c-.47,1.24-1.33,2.35-1.11,3.16.66,2.45-.65,3.65-2.36,4.77-3.2,2.09-3.86,5.8-1.42,8.69,1.76,2.08,3.82,3.86,2.62,7.13-.27.74.79,2.08,1.42,3,1.82,2.72,3.73,5.38,5.6,8.06a2.6,2.6,0,0,1-2.07-.42c-2.55-1.87-5-3.88-7.63-5.62-.78-.51-2.72-.75-3-.34-3.09,4.56-6.51,9-6.37,15,0,1.21-.83,2.48-1.41,3.65-.48,1-1.55,1.78-1.69,2.75-.73,5-1.49,9.95-1.74,15a14.49,14.49,0,0,0,2.4,9.37c2.29-4.41,2.66-8.6,3-12.77,0-.43-.32-.91-.56-1.34a11.21,11.21,0,0,1-.84-9c4.75,6.63,11.58,9.25,18.56,12-.45,3.57-.4,7.27-1.51,10.58-.89,2.62-.2,4.06,1.57,6,4.51-4.1,4.12-10,6.4-15.62,3.24,1.54,6.53,3.07,9.75,4.71.37.19.52,1,.54,1.59.1,2.1,1.25,2,2.57,1.19,1.9-1.19,3.72-2.52,6.18-4.21v15.3L311,371.1c-.4,3.87-1.28,6.9-.83,9.72.38,2.3,2.27,4.39,3.63,6.49,2.66,4.15,5.32,8.26,5.9,13.35.1.89.85,1.71,1.6,3.14,1.06-2,1.73-3.26,2.44-4.53.34-.6.72-1.62,1.14-1.65,4-.31,4.07-3.14,4.41-6.09a37.4,37.4,0,0,1,1.51-5.67c.7-2.52,2.84-5.1-.42-7.44-.27-.19-.28-.91-.21-1.36,1.26-9-.33-18.74,6.13-26.75,3.35.7,6.73,1.29,10,2.19.7.19,1.18,1.46,1.59,2.32.12.24-.4,1.13-.57,1.12-.74-.08-1.87-.17-2.12-.64-1.79-3.41-3.33-1.32-5,.06-2.33,1.93-2.27,6.25-6.39,6.39-.16,0-.36.46-.45.74-1.64,4.67-.62,9.27.5,13.83.18.74,1.3,1.25,2.7,2.5.44-2.9.75-5,1.13-7.5a82.31,82.31,0,0,1,5.92,7.1c1.85,2.82,3.1,6,4.85,8.91,2.24,3.71,5.08,7.09,7,10.94s5.61,6.1,6.93,10.19c.16.5,1.82.56,2.8.73a12.54,12.54,0,0,0,1.94,0c-3,1.85-2.95,1.85-1.2,4.61,1.06,1.67,2.05,3.39,3.19,5a12.56,12.56,0,0,0,2.05,1.85l.58-.55-2.61-5.77L370,414c.44,1,.88,2,1.66,3.87.62-2.33,1-3.84,1.43-5.35l-3-.28c.71-1.86,1.38-3.58,2-5.31l.91.27v1.29a21.51,21.51,0,0,1,2.78,2.07c1.82,2,3.46,4.08,5.34,6,1.59,1.6,2.76,1.23,3.4-.9.34-1.15.62-2.32,1-4,2.55,2.12,5.1,3.41,7,.14a69.53,69.53,0,0,0,4.9-10c.89-2.34,2.24-5.07-.61-7.32-.3-.24-.22-1.39.09-1.87,1.76-2.79,3.32-5.82,5.59-8.15s2.89-3.77.6-6.35a15.22,15.22,0,0,0-2.15-2c-4.24-3.21-7.48-6.82-6.21-12.79a26.81,26.81,0,0,0,0-5.38l-.84-.07c-.35,3.64-.69,7.29-1.06,11.16-4.43-1.18-2.07-5.35-4.16-7.74l-1.2,3.59-.48-.07-1-7.66.68-.1,1.53,3,1,0c-1.62-3.41-.52-5.6,2.27-7.35a9.09,9.09,0,0,0,4.44-8.47c-.06-2.4-.33-5.14.68-7.14a6.24,6.24,0,0,0,.59-5.12,4.67,4.67,0,0,1-.32-1.67c.19-2.27.7-4.54.67-6.81,0-3.42-.09-3.56,3.18-4.34-.18,2-1.12,4.45-.38,6.2,1.48,3.54,5,4.31,8.54,2.64,2-.95,3.81-5.28,2.45-6.19-2.5-1.68-5.25-3-7.7-4.34.26-.5,1.33-1.6,1.28-2.65a48.27,48.27,0,0,0-1.28-7.49,2.69,2.69,0,0,0-1.09-1.27c-2.37-1.81-8-.73-9.48,1.66l-6.59-3.91c.6-2.84-1.29-4-5.11-4.48,5.17-3,4.43-7.45,4.78-11.52.38-4.43.43-8.9.88-13.33.22-2.23,1.32-4.38,1.46-6.59.44-6.88.44-13.79.94-20.66a8.73,8.73,0,0,0-3.86-8.32c-1-.72-2.19-1.85-2.25-2.86-.39-6.17-.86-12.37,2.31-18.15a44.54,44.54,0,0,0,2.8-7.18,6.59,6.59,0,0,0-.06-2.25c-2.74,3.43-3.2,7.87-6.54,11-2-4.53-.6-8.24,1.21-11.94,1.56-3.19,3-6.44,4.48-9.67l2.64,1.7,3.71-3c-.2,3.15-.33,5.44-.5,8.21l-3.59-2.15c-1.36,2.76-1.18,3.07.65,5,2.37,2.52,4.52,5.17,4.59,9,.26,13,.44,26.07,1,39.1.34,7.93-2,15.05-5.9,21.63a16.54,16.54,0,0,0-2.66,8.52c0,1.65-.74,3.79,0,4.87,2,2.9,1.51,5.81.46,8.47-.86,2.22-.05,3.28,1.32,4.46.73.63,1.57,1.15,2.7,2a43.6,43.6,0,0,1,2.34-3.79c.61-.82,1.52-2,2.26-2,2.92.08,3.72-2.11,4.53-4a49.36,49.36,0,0,0,3.39-9.74c.83-4.31,2.78-8.56.86-13.24-.71-1.75-.34-4.19.18-6.14.85-3.18,2.29-6.2,3.35-9.33.16-.46-.3-1.18-.58-1.73s-1-1.06-1.06-1.64c-.66-4.47-1.29-8.94-1.8-13.42-.62-5.39-.78-10.86-1.75-16.19-.8-4.43-2.51-8.7-3.76-13.06-.2-.69-.41-1.76-.05-2.15,2.33-2.55,3.85-5.94,7.63-7.06a5.43,5.43,0,0,0,2.79-2.88c1.69-3.74,5.43-4.9,8.58-5.59,2.16-.48,3-1.54,4.22-2.74a18.52,18.52,0,0,0,1.21-2c2.08-2.77,1.94-3.25-1.43-4.53a8.43,8.43,0,0,1,.7-1.62c.38-.57,1-1,1.38-1.55,1.3-2,.69-4-1.25-4.14a27.41,27.41,0,0,0-4.95-.19c-2.1.18-2.4-.77-2.57-2.59a5,5,0,0,0-1.92-3.51c-3-1.54-6.17-2.69-9.67-1.53a7.18,7.18,0,0,1-6.5-.73c-1.88-1.23-3.56-.54-5.54,0a20.29,20.29,0,0,1-8.05.6c-2-.28-2.84.87-2.39,1.81,1.66,3.42-1.13,5-2.43,7.18a3.45,3.45,0,0,0-.58,2.54,39.07,39.07,0,0,0,3,4.72c8.79-10.81,9.84-11.59,14.86-10.18-3.18,2.75-6.22,4.89-8.61,7.61-1.48,1.69-4.16,3.29-3.23,6.4,2.27-1.47,4.26-2.89,6.38-4a2.34,2.34,0,0,1,2.26.38,2.49,2.49,0,0,1-.27,2.29c-1.05,1.43-2.63,2.51-3.49,4A41.77,41.77,0,0,0,387.78,197.85Zm-161.57.75-.84-.55a28.16,28.16,0,0,0-3.26,3.76c-2.51,4.09-4.57,8.56-10.08,9.43-.39.06-.71.48-1.08.71-.81.5-1.69,1.47-2.44,1.38-6-.7-12.21-1.09-16.39-6.7-1.88-2.53-4.83-2.58-6.33-.35-5.69,8.48-13.26,15.19-20.47,22.24-5,4.84-9.82,9.78-14.92,14.47-1.88,1.73-3.13,3.37-3,6,.06,1.41-.07,3.23-.9,4.16-1.41,1.57-3.45,2.57-5.55,4,1.17,3.08-.52,5.34-3,7.28a3.18,3.18,0,0,0-.76.91c-1,1.95-2.19,2.08-3.57.32a14.5,14.5,0,0,0-1.41-1.28c-1.22,2.32.3,6.28-3.94,5.67.5,4-3.72,2.43-4.77,5-.06,3.6,2.5,2,5.34,1L122.27,285l.61.53,15.43-10.46c2.36-1.6,4.95-2.95,7-4.87,3.61-3.36,7.24-6.3,12.13-7.91,2.82-.93,4.7.14,6.37,1.33.82.58.54,3.21.2,4.79a52.8,52.8,0,0,1-2.3,6.59c4.38.15,4.5.27,2.46,3.7-1.49,2.5-3.37,4.79-4.8,7.33a60,60,0,0,0-4.49,9.23c-2.06,5.83-3.72,11.79-5.48,17.72a5.7,5.7,0,0,0,.14,2c7.39,1.94,13.73,0,19.72-5.2l.79,2.32c3.25-2.7,7.85-3.26,10.47-1.43-.8,1.59-1.62,3.21-2.45,4.88l2.43.82c-.65,1.19-1.18,2.19-2.06,3.81,1.42-.65,2.2-1,3-1.35,10.49-5.52,21-10.94,31.45-16.62,14.92-8.13,31-12.31,47.67-14.81a3.53,3.53,0,0,1,2.14.44c.18,3.13,3.11,3.09,4.86,4.37,3.31,2.41,6.61,4.83,10.08,7.35q1.51-3.18,3.08-6.5c2,1.23,3.64,2.3,4.24-.88a3.85,3.85,0,0,1,.81-1.23,22.92,22.92,0,0,0,4.56-12c.4-4.53,1-9.05,1.67-13.55a7.23,7.23,0,0,1,1.32-3.46c2.57-3.12,2.84-5.78,1.18-9.51-1.39-3.14-3.13-6.4-3.39-9.71A115.94,115.94,0,0,0,287.92,224a52.34,52.34,0,0,1-1.36-10.21c-.07-1.65,1.19-3.33,1.33-5,.23-3,.06-6.06.06-9.16l2.37.3c-2-2.21-1-3.69.51-5s.61-4.65,4.22-3.53c-.54-1.22-.95-2.13-1.36-3l.47-.43,3.24,2.13c.73-.6,1.44-1.18,2.12-1.72l-2.81-5,3.29-3.23.8.22c.57-1.29.79-2.72,1.62-3.4.65-.52,2.06-.1,3.33-.1-.7-1.89-1.42-3.81-2.14-5.73l.76-.43q6.11,7.68,12.22,15.34l1.39-.88c-5.75-5.71-7-13.48-10.48-20.67l14.78,12.4c-1.55-6.41-6.18-10-10.48-13.69-3.06-2.63-4.39-5.82-5.08-9.66h-2.23l.55-.71a37.08,37.08,0,0,0-3.07-3.19,1.86,1.86,0,0,0-1.81.08c-1.81,2.51-3.64.84-5.49.18-1-.35-2.16-1.18-2.92-.89-2,.76-3.34-.36-4.69-1.33-4.19-3-4.16-3-7.17,1.21a29.43,29.43,0,0,1-3.25-3.66c-.88-1.4-1.24-3.12-2-4.58a47.38,47.38,0,0,0-2.74-4.06h1.7a12.8,12.8,0,0,0-4.89-2c-2.9-.48-4.08.91-2.82,3.55,1,2,2.59,3.77,4,5.75L264,145.73v-3c-3.73-2.64-9.06-1.82-12.46-6a13.7,13.7,0,0,0-2,1.13c-.79.61-1.42,1.92-2.17,2s-1.63-1.08-2.45-1.69l-.56.23c.85,1.57,1.71,3.14,2.82,5.17-2.69-.11-5.1-2.18-6.07,1.58-1.54-.87-3.16-1.3-4-2.34-1.36-1.77-2.58-1.63-4.23-.59l2.18,2.05-7.66,2.94c-.07,0-.18-.07-.28-.09-2.92-.83-5.52-.7-7,2.88l-4.46-3.86c-.71,1.31-1.3,2.41-2.08,3.87-1.77-1-4.1-1.52-4.9-2.92-1.17-2-1.24-4.71-1.8-7.21l3,.64-3.92-3c-1.11.17-2.38.76-2.84.37-2.58-2.16-4.17-.23-5.1.32q2.92,3.57,5.79,7.18c1.35,1.71,1.57,5.16.19,6-2.25,1.41-3-.81-4.15-2L192,141.2c-1.27,2.18-2.65,2.83-4.47.63.41-.44,1-.76,1-1.14.47-3.59-3.6-4.27-4.61-7-.24-.67-1.57-1-2.46-1.37-.7-.26-1.52-.17-2.25-.37-2-.55-3.22-1.94-4.35-3.74-.66-1-2.59-1.38-4-1.77-1-.27-2.33.3-3.16-.15-3.3-1.82-6.45-3.9-9.66-5.87l.87-.37a17.58,17.58,0,0,0-1.07-4c-.89-1.66-2.28-3-.71-5.08.28-.37-.17-1.76-.7-2.2-2.25-1.9-4.65-3.61-7-5.39-1-.71-1.8-1.73-2.86-2.07-2.69-.86-5.48-1.42-8.5-2.16l-1.42,3.19c-3-.33-2.78-2.65-3.38-4.6-1-3.23,2.38-2.71,3.52-4.12L135,91.13c1.35-.46,2.48-.79,3.56-1.24,1.27-.52,2.51-1.14,3.76-1.72A21.87,21.87,0,0,0,140,84.65a42.34,42.34,0,0,0-4.12-3.38l.51-.93,4,1.2.29-.41-9.67-7.93-.69.85,4.23,3.2c-3.77,3.2-8,4.06-11.12,1.77a18,18,0,0,1,3.72-1.75c3.37-.68,3.48-.8,1.5-3.43a7,7,0,0,1-.71-1.39c-3.68-.86-5.73.42-6,4.14-.21,2.66.09,5.61-3.11,7-.07,0,.1.49.05.73-.11.55-.21,1.53-.45,1.57-2,.34-2.25,1.77-2.84,3.33a4.33,4.33,0,0,1-2.72,2.43c-5.32,1-10.69,1.65-16,2.49a4,4,0,0,0-2.1.83c-1.76,1.68-3,1.33-4-.79-2.61,1.89-3.07,2.44-1.94,3.87.87,1.09,2.61,1.63,4.07,2,.86.25,1.93-.36,2.9-.38,3.66,0,7.33,0,11.18,0,.52-1.91,1-2.12,5.94-1.92-.74,1-1.29,1.86-1.88,2.64-1.37,1.79-1.2,4.94.76,5.67s3.29,3.9,6.15,2c.22-.15,1.21.29,1.25.55.63,3.66,3.5,3.39,6.09,3.52,2.28.1,4.58-.1,6.84.13,2.88.31,5.87.39,7.36,3.84.49,1.11,2.3,1.67,3.53,2.43.56.35,1.41.4,1.76.86,1.94,2.5,4.51,4.83,5.46,7.69,2.19,6.57,7.84,10.28,11.59,15.52a50.33,50.33,0,0,0,7.4,7.91c1.91,1.71,4.5,2.67,6.45,4.35,3.62,3.12,7,6.52,10.56,9.89-1.14,3.47-1.33,5.43,1,8.69a145.89,145.89,0,0,0,10.16,12c1.74,1.92,3.95,1,5.3-.34.85-.83.58-2.81.81-4.27l-.68-.12,5.87-6.44a15.54,15.54,0,0,1,1.93,3,7.1,7.1,0,0,1,.33,3.55,26.71,26.71,0,0,1-2.06,4.62,37.36,37.36,0,0,0,4.36.71c3,.09,5.93,0,8.9,0,4.73.07,6.45,2.05,5.87,6.56a15.37,15.37,0,0,0,.17,2.32c.06,4-1.76,7.16-4,10.19Q225.21,201.9,226.21,198.6ZM295.32,129l-.08,1.24-2.36,2.74c3.92.23,7.41,2.45,10.47-1.19a3.73,3.73,0,0,1,2-1.18,8,8,0,0,0,6.1-4.66l4.79,2.59c1-3.8,3.37-3.8,5.44-2.21,1.7,1.3,2.71,3.5,4.14,5.47,1.64-1.58,3.37-3.32,4.76.21l4.7-2.34c-.24-1.31-.52-2.64-.75-4a61.35,61.35,0,0,1-.95-6.42,2.89,2.89,0,0,1,1.26-2.21c5.55-3.16,11.31-6,16.73-9.34a64.13,64.13,0,0,0,8.8-7.21c.72-.64.89-1.91,1.63-3.62-1.07.56-1.31.61-1.4.75-3.29,5.47-7.56,9.19-14.51,8.4a5.58,5.58,0,0,0-5.62,2.14c-3.53,4.38-8.77,5.59-14.1,5.53-2.88,0-5.74-1.18-8.74-1.85a5.68,5.68,0,0,1,1.15-1.32c3.15-2.2,6.22-4.54,9.55-6.44s6.24-4.26,7.62-7.78l-6.45-5.48A46.37,46.37,0,0,1,333,87c4.23-3.65,5.28-7.24,3.59-12.75-.28-.93-.38-2.67-.72-2.7-3.1-.35-2.57-3.37-3.92-5-.85-1-1.73-2.41-2.83-2.68-7.3-1.8-14.78-1.57-22.24-1.56a17.38,17.38,0,0,0-9.16,2.33c-4.45,2.57-9.11,1.83-13.18-1.51a2.84,2.84,0,0,0-4.37,1.54c-1.15,5.06-2.36,10.13-3.13,15.25-.67,4.38-1.15,8.58-6.74,9.36.66,2.64.41,5.15,3.48,6.29a4.57,4.57,0,0,1,2.34,3.64c-.09,1-1.91,2.09-3.12,2.9-2,1.32-4.07,2.43-6.08,3.68s-3.63,2.56-6.18,1.86a10.1,10.1,0,0,0-3.82.15c-3,.41-3.57,1.4-2.07,3.94,2.46,4.17,5.4,8,9.74,10.43,1.47.83,2.68,2.47,4.2,2.77,3.79.74,7.7.89,11.55,1.4a9.4,9.4,0,0,1,2.44,1.11c.12-.47.29-1.17.57-2.26C287.28,127.23,290.47,130.44,295.32,129ZM387,148.07c.6-4.37-4.87-7.83-1.44-12.27l-12.39-4.05.12-.85h9.13c-.71-4.91-1.41-9.67-2.07-14.21l-26,1.39,4.3,1.16c0,.29-.09.58-.13.86-4.15,0-8.32.24-12.44-.08-2.82-.22-4.67.93-6.47,2.71,3.78,4.29,9.46,6.54,11.58,12.32,2,5.37,4.33,10.6,6.19,15.09,1.39-.35,3.11-1.27,3.6-.83,2.18,2,4.34,1.4,6.67.67a10.53,10.53,0,0,1,3.46-.68c7.31.35,11.42,5.15,14.62,11,1.4,2.55,3.5,3.09,5.56,1,.77-.77,1.44-1.63,2.19-2.41,1.33-1.39,1.19-2.62-.31-3.75-3.08-2.29-6.21-4.54-9.23-6.91a26.94,26.94,0,0,1-2.85-3l.57-.62Zm-2.6-21.53c1,3,2,5.93,2.86,8.9.15.52.05,1.6-.18,1.68-2.06.7-.9,2.07-.68,3.13.32,1.54,1,3,1.25,4.57a8.8,8.8,0,0,0,5,7.15,61.67,61.67,0,0,1,5.57,3.93c3.18,2.17,6.22,4.64,9.64,6.32,3,1.46,5.62,2.81,6.34,6.42.94-.62,2.28-1.12,2.25-1.54-.16-2.92.26-6.37-1.16-8.6-2.32-3.64-5.76-6.65-9-9.62s-6.66-5.36-10.63-8.5c2.75.24,4.85.49,7,.61s4.65.55,5.47-2.22c.65-2.22-4.05-9.77-6.36-10.51-3.16-1-6.33-2.08-9.57-2.81C389.63,124.9,387,124.11,384.35,126.54Zm-48.13,4.25a22.7,22.7,0,0,0-2.66,1.2q-6.9,5.13-13.78,10.29c-.45.33-.89.83-1.4.9-3.39.54-6.8,1-10.44,1.5a22.62,22.62,0,0,0-2.16,2.83,2.2,2.2,0,0,0,.06,2,2,2,0,0,0,1.9.49,53.69,53.69,0,0,0,4.65-3.16c.29.12,1.53.22,1.82.8,1.7,3.39,4.9,3.09,7.61,2.76,5.18-.63,10.28-1.9,16.26-3.06C337.51,142.29,336.9,136.82,336.22,130.79Zm12.19-35.06L362.13,94c-1.8-2.84-2.79-4.91-4.25-6.6C353.22,82,347.12,79,340.3,77.19c-1.88-.49-2.08.52-2,1.85.2,4.14.38,8.28.76,12.4a2.84,2.84,0,0,0,1.68,2c2.45.53,5,.72,7.6,1C348.33,94.68,348.37,95.21,348.41,95.73ZM194.25,135.89l1-.46c-1.38-3.4-2.28-7.12-4.29-10.09-1.81-2.66-4.5-5.48-7.4-6.49-7.35-2.56-12.46-7.8-17.87-12.82-3.15-2.92-6.25-5.89-9.37-8.84-.54-.51-1.34-1-1.51-1.59-.6-2.19-1.85-1.87-3.92-1,.92,1.28,1.45,2.74,2.48,3.32,3.87,2.17,6.77,5.14,9.72,8.5,3.9,4.42,9.16,7.66,13.89,11.34a9.18,9.18,0,0,0,2.43,1c6.07,2.32,10.62,6.13,12.68,12.55A35.17,35.17,0,0,0,194.25,135.89ZM426.79,346.32c-4.92-3.49-7.81-2.6-8.52,2.33-.16,1.1.77,2.58,1.63,3.47.35.37,2.15-.06,2.76-.67A55.31,55.31,0,0,0,426.79,346.32ZM381.85,121.39c.78,1.13,1.39,3,2.35,3.22,2.13.45,5.33-2.45,5.19-4.2-.21-2.59-2.05-3-4.21-3.13C382.26,117.12,382.3,119,381.85,121.39Zm-88.72,15.89-.09,1.19h6.86c.34,3.6-2.86,2.49-4.75,3.82,4.83.57,8.11-1.23,11.7-4.65C301.83,136.76,297.47,137.15,293.13,137.28Zm9.77-77L287.67,61c.24.47.58,1.18.94,1.88,1.07,2.08,4,3.13,5.46,1.59a9.6,9.6,0,0,1,6.2-2.89A10.41,10.41,0,0,0,302.9,60.28Zm35.66,61.41c7-4.3,7.2-4.57,5.09-7.56l-8.6,4c.91,1.12,1.55,2,2.28,2.77A5.47,5.47,0,0,0,338.56,121.69Zm-8.82-61.54v-.77c-8.17-1.59-16.35-2.19-24.6,0,2.15.15,4.3-.15,6.45-.13a64.6,64.6,0,0,1,7.86.55c1.25.16,2.43,1.19,3.64,1.19A55.67,55.67,0,0,0,329.74,60.15ZM254.58,105c2.41.18,2.76-1.89,3.45-3.28,1.78-3.59,3.6-7,8.05-7.9.61-.13,1.07-1,2.21-2C262.22,93.11,255.4,100,254.58,105ZM254,136.51c2,.63,3.55,1.72,4.55,1.34a48.71,48.71,0,0,0,6.88-3.87l-.1-.45ZM408.29,341.1c-1.44-1.13-2.64-2.54-3.07-2.33a6.51,6.51,0,0,0-2.54,2.77c-.14.25,1.36,1.95,1.81,1.83C405.66,343.08,406.66,342.14,408.29,341.1Zm11-3.67,2.33-2.81c-.93-.71-1.83-1.86-2.82-1.95-.68-.06-1.49,1.37-2.25,2.14ZM393,106.92l-2.5,2.92c.92.67,1.81,1.77,2.77,1.84.69.06,2.06-1.26,2.07-2S394.07,108.16,393,106.92ZM304.11,396.36c1-1.41,2.13-2.33,2.11-3.22,0-.73-1.42-1.44-2.2-2.15a16.13,16.13,0,0,0-2.35,3C301.55,394.23,302.91,395.22,304.11,396.36ZM222.58,136.81l-6.88,3.67.3.41h4.79Z" transform="translate(-0.62 -31.59)" style="fill:#fff"/><path d="M226.21,198.6q-1,3.3-2,6.6c2.26-3,4.08-6.24,4-10.19a15.37,15.37,0,0,1-.17-2.32c.58-4.51-1.14-6.49-5.87-6.56-3,0-5.94.05-8.9,0a37.36,37.36,0,0,1-4.36-.71,26.71,26.71,0,0,0,2.06-4.62,7.1,7.1,0,0,0-.33-3.55,15.54,15.54,0,0,0-1.93-3l-5.87,6.44.68.12c-.23,1.46,0,3.44-.81,4.27-1.35,1.31-3.56,2.26-5.3.34a145.89,145.89,0,0,1-10.16-12c-2.36-3.26-2.17-5.22-1-8.69-3.56-3.37-6.94-6.77-10.56-9.89-1.95-1.68-4.54-2.64-6.45-4.35a50.33,50.33,0,0,1-7.4-7.91c-3.75-5.24-9.4-8.95-11.59-15.52-.95-2.86-3.52-5.19-5.46-7.69-.35-.46-1.2-.51-1.76-.86-1.23-.76-3-1.32-3.53-2.43-1.49-3.45-4.48-3.53-7.36-3.84-2.26-.23-4.56,0-6.84-.13-2.59-.13-5.46.14-6.09-3.52,0-.26-1-.7-1.25-.55-2.86,1.93-4.18-1.24-6.15-2s-2.13-3.88-.76-5.67c.59-.78,1.14-1.6,1.88-2.64-5-.2-5.42,0-5.94,1.92-3.85,0-7.52,0-11.18,0-1,0-2,.63-2.9.38-1.46-.41-3.2-.95-4.07-2-1.13-1.43-.67-2,1.94-3.87.94,2.12,2.21,2.47,4,.79a4,4,0,0,1,2.1-.83c5.35-.84,10.72-1.5,16-2.49a4.33,4.33,0,0,0,2.72-2.43c.59-1.56.89-3,2.84-3.33.24,0,.34-1,.45-1.57,0-.24-.12-.7-.05-.73,3.2-1.37,2.9-4.32,3.11-7,.31-3.72,2.36-5,6-4.14a7,7,0,0,0,.71,1.39c2,2.63,1.87,2.75-1.5,3.43A18,18,0,0,0,123.49,79c3.08,2.29,7.35,1.43,11.12-1.77l-4.23-3.2.69-.85,9.67,7.93-.29.41-4-1.2-.51.93A42.34,42.34,0,0,1,140,84.65a21.87,21.87,0,0,1,2.32,3.52c-1.25.58-2.49,1.2-3.76,1.72-1.08.45-2.21.78-3.56,1.24l1.74,2.5c-1.14,1.41-4.51.89-3.52,4.12.6,2,.37,4.27,3.38,4.6L138,99.16c3,.74,5.81,1.3,8.5,2.16,1.06.34,1.91,1.36,2.86,2.07,2.35,1.78,4.75,3.49,7,5.39.53.44,1,1.83.7,2.2-1.57,2-.18,3.42.71,5.08a17.58,17.58,0,0,1,1.07,4l-.87.37c3.21,2,6.36,4,9.66,5.87.83.45,2.16-.12,3.16.15,1.44.39,3.37.74,4,1.77,1.13,1.8,2.31,3.19,4.35,3.74.73.2,1.55.11,2.25.37.89.33,2.22.7,2.46,1.37,1,2.75,5.08,3.43,4.61,7-.05.38-.61.7-1,1.14,1.82,2.2,3.2,1.55,4.47-.63l7.85,8.2c1.14,1.18,1.9,3.4,4.15,2,1.38-.86,1.16-4.31-.19-6q-2.86-3.62-5.79-7.18c.93-.55,2.52-2.48,5.1-.32.46.39,1.73-.2,2.84-.37l3.92,3-3-.64c.56,2.5.63,5.17,1.8,7.21.8,1.4,3.13,1.93,4.9,2.92.78-1.46,1.37-2.56,2.08-3.87l4.46,3.86c1.51-3.58,4.11-3.71,7-2.88.1,0,.21.11.28.09l7.66-2.94-2.18-2.05c1.65-1,2.87-1.18,4.23.59.81,1,2.43,1.47,4,2.34,1-3.76,3.38-1.69,6.07-1.58-1.11-2-2-3.6-2.82-5.17l.56-.23c.82.61,1.66,1.72,2.45,1.69s1.38-1.35,2.17-2a13.7,13.7,0,0,1,2-1.13c3.4,4.21,8.73,3.39,12.46,6v3l5.88-1.85c-1.42-2-3-3.71-4-5.75-1.26-2.64-.08-4,2.82-3.55a12.8,12.8,0,0,1,4.89,2h-1.7a47.38,47.38,0,0,1,2.74,4.06c.79,1.46,1.15,3.18,2,4.58a29.43,29.43,0,0,0,3.25,3.66c3-4.25,3-4.22,7.17-1.21,1.35,1,2.65,2.09,4.69,1.33.76-.29,1.94.54,2.92.89,1.85.66,3.68,2.33,5.49-.18a1.86,1.86,0,0,1,1.81-.08,37.08,37.08,0,0,1,3.07,3.19l-.55.71h2.23c.69,3.84,2,7,5.08,9.66,4.3,3.68,8.93,7.28,10.48,13.69l-14.78-12.4c3.49,7.19,4.73,15,10.48,20.67l-1.39.88q-6.12-7.66-12.22-15.34l-.76.43c.72,1.92,1.44,3.84,2.14,5.73-1.27,0-2.68-.42-3.33.1-.83.68-1.05,2.11-1.62,3.4l-.8-.22-3.29,3.23,2.81,5c-.68.54-1.39,1.12-2.12,1.72L294.16,188l-.47.43c.41.9.82,1.81,1.36,3-3.61-1.12-2.82,2.34-4.22,3.53s-2.49,2.77-.51,5l-2.37-.3c0,3.1.17,6.14-.06,9.16-.14,1.7-1.4,3.38-1.33,5A52.34,52.34,0,0,0,287.92,224a115.94,115.94,0,0,1,3.15,18.64c.26,3.31,2,6.57,3.39,9.71,1.66,3.73,1.39,6.39-1.18,9.51a7.23,7.23,0,0,0-1.32,3.46c-.65,4.5-1.27,9-1.67,13.55a22.92,22.92,0,0,1-4.56,12,3.85,3.85,0,0,0-.81,1.23c-.6,3.18-2.27,2.11-4.24.88q-1.56,3.31-3.08,6.5c-3.47-2.52-6.77-4.94-10.08-7.35-1.75-1.28-4.68-1.24-4.86-4.37a3.53,3.53,0,0,0-2.14-.44c-16.65,2.5-32.75,6.68-47.67,14.81-10.41,5.68-21,11.1-31.45,16.62-.75.39-1.53.7-3,1.35.88-1.62,1.41-2.62,2.06-3.81l-2.43-.82c.83-1.67,1.65-3.29,2.45-4.88-2.62-1.83-7.22-1.27-10.47,1.43l-.79-2.32c-6,5.18-12.33,7.14-19.72,5.2a5.7,5.7,0,0,1-.14-2c1.76-5.93,3.42-11.89,5.48-17.72a60,60,0,0,1,4.49-9.23c1.43-2.54,3.31-4.83,4.8-7.33,2-3.43,1.92-3.55-2.46-3.7a52.8,52.8,0,0,0,2.3-6.59c.34-1.58.62-4.21-.2-4.79-1.67-1.19-3.55-2.26-6.37-1.33-4.89,1.61-8.52,4.55-12.13,7.91-2.06,1.92-4.65,3.27-7,4.87l-15.43,10.46-.61-.53,6.54-8.94c-2.84,1-5.4,2.6-5.34-1,1-2.55,5.27-1,4.77-5,4.24.61,2.72-3.35,3.94-5.67a14.5,14.5,0,0,1,1.41,1.28c1.38,1.76,2.54,1.63,3.57-.32a3.18,3.18,0,0,1,.76-.91c2.48-1.94,4.17-4.2,3-7.28,2.1-1.47,4.14-2.47,5.55-4,.83-.93,1-2.75.9-4.16-.1-2.66,1.15-4.3,3-6,5.1-4.69,10-9.63,14.92-14.47,7.21-7.05,14.78-13.76,20.47-22.24,1.5-2.23,4.45-2.18,6.33.35,4.18,5.61,10.34,6,16.39,6.7.75.09,1.63-.88,2.44-1.38.37-.23.69-.65,1.08-.71,5.51-.87,7.57-5.34,10.08-9.43a28.16,28.16,0,0,1,3.26-3.76Z" transform="translate(-0.62 -31.59)"/><path d="M356.18,284.12l3-.83c.26-.42-1.14-3.06,2.2-1.7-.51-2-.9-3.48-1.26-4.87.78-.5,2.17-1.07,2.11-1.43a35.14,35.14,0,0,0-1.5-5.19c-1.55,3-2.75,5.27-4,7.7-1.82-.91-3.3-1.67-4.8-2.4s-2.82-.38-3.6,1.31c-1.79,3.86-3.63,7.69-5.57,11.8L341,287.7c.3-3.95.56-7.49.86-11.49a8.15,8.15,0,0,0,2.91-9.31l2.25,1.22.5-.37-2.71-3.52.6.21c.15-2.59.31-5.18.46-7.77,1.23-.47.53-1.5.32-3a30.9,30.9,0,0,1,.17-8.64c.94-6.58,2.24-13.06,1.56-19.83-.44-4.39-.82-8.75-3.71-12.16a98.13,98.13,0,0,0-8.74-8.43c-3.56-3.29-7.21-6.48-10.78-9.76a13.25,13.25,0,0,1-1.52-2l.54-.58c3.72,3.26,7.25,6.76,11.21,9.71s7.41,6.52,12.84,6.71a14.6,14.6,0,0,0-4.5-9.5c-5.05-4.88-9.77-10.1-14.44-15.35-1.39-1.57-2.17-3.69-3.21-5.53,2.77,1.48,5.25,3.51,8,4.15,5,1.17,8,4.7,11.35,8a4.63,4.63,0,0,0,2.93,1A76.26,76.26,0,0,0,336.47,178c-4.37-4.19-8.78-8.35-13.17-12.52l.71-.87c4.13,3.16,8.26,6.31,12.37,9.5,1.09.85,2.08,1.82,3.15,2.7,2.17,1.79,4.36,3.56,8,1.71l-14-12.51.39-.68,10.17,5.89.4-.19c-1.79-1.92-3.56-3.85-5.36-5.76s-3.49-3.5-5.13-5.35c-.87-1-2.51-2-.61-3.61.17-.14-.47-1.35-.85-2-.75-1.25-1.58-2.46-2.8-4.33a53.87,53.87,0,0,1,6.46-.5c1.95.07,2.69-.67,2.76-2.52.06-1.51.31-3,.55-5.16a18.79,18.79,0,0,1,2.11,1.59,50.91,50.91,0,0,1,5.2,6c1.43,2.18,2.14,4.81,3.43,7.1,3,5.34,4.79,11.64,10.38,15.11,1.69,1.05,4,1.05,6.07,1.51.66.14,1.53,0,2,.33,4.73,3.81,10.23,6.89,12.66,12.95.14.36.13.92.38,1.1,3.69,2.54,2.46,5.87,1.63,9.21-.41,1.65-.53,3.38-.79,5.07l.87.31a17.41,17.41,0,0,1,2-3.32c.51-.56,1.57-.63,2.39-.91l-.1-.1c-1.49,3.22-2.92,6.47-4.48,9.66-1.81,3.7-3.19,7.41-1.21,11.94,3.34-3.13,3.8-7.57,6.54-11a6.59,6.59,0,0,1,.06,2.25,44.54,44.54,0,0,1-2.8,7.18c-3.17,5.78-2.7,12-2.31,18.15.06,1,1.29,2.14,2.25,2.86a8.73,8.73,0,0,1,3.86,8.32c-.5,6.87-.5,13.78-.94,20.66-.14,2.21-1.24,4.36-1.46,6.59-.45,4.43-.5,8.9-.88,13.33-.35,4.07.39,8.53-4.78,11.52,3.82.46,5.71,1.64,5.11,4.48l6.59,3.91c1.49-2.39,7.11-3.47,9.48-1.66a2.69,2.69,0,0,1,1.09,1.27,48.27,48.27,0,0,1,1.28,7.49c.05,1.05-1,2.15-1.28,2.65,2.45,1.35,5.2,2.66,7.7,4.34,1.36.91-.43,5.24-2.45,6.19-3.55,1.67-7.06.9-8.54-2.64-.74-1.75.2-4.19.38-6.2-3.27.78-3.22.92-3.18,4.34,0,2.27-.48,4.54-.67,6.81a4.67,4.67,0,0,0,.32,1.67,6.24,6.24,0,0,1-.59,5.12c-1,2-.74,4.74-.68,7.14a9.09,9.09,0,0,1-4.44,8.47c-2.79,1.75-3.89,3.94-2.27,7.35l-1,0-1.53-3-.68.1,1,7.66.48.07,1.2-3.59c2.09,2.39-.27,6.56,4.16,7.74.37-3.87.71-7.52,1.06-11.16l.84.07a26.81,26.81,0,0,1,0,5.38c-1.27,6,2,9.58,6.21,12.79a15.22,15.22,0,0,1,2.15,2c2.29,2.58,1.77,3.92-.6,6.35s-3.83,5.36-5.59,8.15c-.31.48-.39,1.63-.09,1.87,2.85,2.25,1.5,5,.61,7.32a69.53,69.53,0,0,1-4.9,10c-1.89,3.27-4.44,2-7-.14-.43,1.65-.71,2.82-1,4-.64,2.13-1.81,2.5-3.4.9-1.88-1.9-3.52-4-5.34-6a21.51,21.51,0,0,0-2.78-2.07v-1.29l-.91-.27c-.66,1.73-1.33,3.45-2,5.31l3,.28c-.41,1.51-.81,3-1.43,5.35C370.9,416,370.46,415,370,414l-.81.36,2.61,5.77-.58.55a12.56,12.56,0,0,1-2.05-1.85c-1.14-1.6-2.13-3.32-3.19-5-1.75-2.76-1.76-2.76,1.2-4.61a12.54,12.54,0,0,1-1.94,0c-1-.17-2.64-.23-2.8-.73-1.32-4.09-5.06-6.45-6.93-10.19s-4.77-7.23-7-10.94c-1.75-2.89-3-6.09-4.85-8.91a82.31,82.31,0,0,0-5.92-7.1c-.38,2.53-.69,4.6-1.13,7.5-1.4-1.25-2.52-1.76-2.7-2.5-1.12-4.56-2.14-9.16-.5-13.83.09-.28.29-.73.45-.74,4.12-.14,4.06-4.46,6.39-6.39,1.67-1.38,3.21-3.47,5-.06.25.47,1.38.56,2.12.64.17,0,.69-.88.57-1.12-.41-.86-.89-2.13-1.59-2.32-3.29-.9-6.67-1.49-10-2.19-6.46,8-4.87,17.71-6.13,26.75-.07.45-.06,1.17.21,1.36,3.26,2.34,1.12,4.92.42,7.44a37.4,37.4,0,0,0-1.51,5.67c-.34,3-.45,5.78-4.41,6.09-.42,0-.8,1.05-1.14,1.65-.71,1.27-1.38,2.56-2.44,4.53-.75-1.43-1.5-2.25-1.6-3.14-.58-5.09-3.24-9.2-5.9-13.35-1.36-2.1-3.25-4.19-3.63-6.49-.45-2.82.43-5.85.83-9.72l9.09,4.32v-15.3c-2.46,1.69-4.28,3-6.18,4.21-1.32.83-2.47.91-2.57-1.19,0-.56-.17-1.4-.54-1.59-3.22-1.64-6.51-3.17-9.75-4.71-2.28,5.65-1.89,11.52-6.4,15.62-1.77-2-2.46-3.4-1.57-6,1.11-3.31,1.06-7,1.51-10.58-7-2.76-13.81-5.38-18.56-12a11.21,11.21,0,0,0,.84,9c.24.43.6.91.56,1.34-.36,4.17-.73,8.36-3,12.77a14.49,14.49,0,0,1-2.4-9.37c.25-5,1-10,1.74-15,.14-1,1.21-1.78,1.69-2.75.58-1.17,1.44-2.44,1.41-3.65-.14-6,3.28-10.45,6.37-15,.27-.41,2.21-.17,3,.34,2.63,1.74,5.08,3.75,7.63,5.62a2.6,2.6,0,0,0,2.07.42c-1.87-2.68-3.78-5.34-5.6-8.06-.63-.94-1.69-2.28-1.42-3,1.2-3.27-.86-5.05-2.62-7.13-2.44-2.89-1.78-6.6,1.42-8.69,1.71-1.12,3-2.32,2.36-4.77-.22-.81.64-1.92,1.11-3.16l-2.88.28c-.48-4.43,0-5.13,4.23-5.69-3.19-7.29.67-14.22.63-22.23,6,3.71,11.26,7,16.58,10.29,2.44,1.51,4.87,3,7.4,4.4a95.77,95.77,0,0,0,10.77,5.28c3.22,1.21,6.79,1.47,10.07,2.53a41.24,41.24,0,0,1,6.18,3.15l7.08-14.23,6.53,3.85c-.3,1.3-4.3,1.08-1.55,3.68a8.29,8.29,0,0,0-.76,2.75,5.13,5.13,0,0,0,1.22,2.64,2.61,2.61,0,0,0,1.79.27c.27-.88.73-2,.37-2.71A14.89,14.89,0,0,0,356.18,284.12Z" transform="translate(-0.62 -31.59)"/><path d="M295.32,129c-4.85,1.49-8-1.72-11.93-3.7-.28,1.09-.45,1.79-.57,2.26a9.4,9.4,0,0,0-2.44-1.11c-3.85-.51-7.76-.66-11.55-1.4-1.52-.3-2.73-1.94-4.2-2.77-4.34-2.48-7.28-6.26-9.74-10.43-1.5-2.54-.89-3.53,2.07-3.94a10.1,10.1,0,0,1,3.82-.15c2.55.7,4.29-.68,6.18-1.86s4.12-2.36,6.08-3.68c1.21-.81,3-1.85,3.12-2.9a4.57,4.57,0,0,0-2.34-3.64c-3.07-1.14-2.82-3.65-3.48-6.29,5.59-.78,6.07-5,6.74-9.36.77-5.12,2-10.19,3.13-15.25a2.84,2.84,0,0,1,4.37-1.54c4.07,3.34,8.73,4.08,13.18,1.51a17.38,17.38,0,0,1,9.16-2.33c7.46,0,14.94-.24,22.24,1.56,1.1.27,2,1.69,2.83,2.68,1.35,1.58.82,4.6,3.92,5,.34,0,.44,1.77.72,2.7,1.69,5.51.64,9.1-3.59,12.75a46.37,46.37,0,0,0-3.52,3.78L336,96.27c-1.38,3.52-4.21,5.83-7.62,7.78s-6.4,4.24-9.55,6.44a5.68,5.68,0,0,0-1.15,1.32c3,.67,5.86,1.81,8.74,1.85,5.33.06,10.57-1.15,14.1-5.53a5.58,5.58,0,0,1,5.62-2.14c6.95.79,11.22-2.93,14.51-8.4.09-.14.33-.19,1.4-.75-.74,1.71-.91,3-1.63,3.62a64.13,64.13,0,0,1-8.8,7.21c-5.42,3.35-11.18,6.18-16.73,9.34a2.89,2.89,0,0,0-1.26,2.21,61.35,61.35,0,0,0,.95,6.42c.23,1.34.51,2.67.75,4L330.6,132c-1.39-3.53-3.12-1.79-4.76-.21-1.43-2-2.44-4.17-4.14-5.47-2.07-1.59-4.46-1.59-5.44,2.21l-4.79-2.59a8,8,0,0,1-6.1,4.66,3.73,3.73,0,0,0-2,1.18c-3.06,3.64-6.55,1.42-10.47,1.19l2.36-2.74Z" transform="translate(-0.62 -31.59)"/><path d="M387.78,197.85a41.77,41.77,0,0,1,2.43-6.07c.86-1.51,2.44-2.59,3.49-4a2.49,2.49,0,0,0,.27-2.29,2.34,2.34,0,0,0-2.26-.38c-2.12,1.16-4.11,2.58-6.38,4-.93-3.11,1.75-4.71,3.23-6.4,2.39-2.72,5.43-4.86,8.61-7.61-5-1.41-6.07-.63-14.86,10.18a39.07,39.07,0,0,1-3-4.72,3.45,3.45,0,0,1,.58-2.54c1.3-2.22,4.09-3.76,2.43-7.18-.45-.94.38-2.09,2.39-1.81a20.29,20.29,0,0,0,8.05-.6c2-.55,3.66-1.24,5.54,0a7.18,7.18,0,0,0,6.5.73c3.5-1.16,6.7,0,9.67,1.53a5,5,0,0,1,1.92,3.51c.17,1.82.47,2.77,2.57,2.59a27.41,27.41,0,0,1,4.95.19c1.94.18,2.55,2.17,1.25,4.14-.38.57-1,1-1.38,1.55a8.43,8.43,0,0,0-.7,1.62c3.37,1.28,3.51,1.76,1.43,4.53a18.52,18.52,0,0,1-1.21,2c-1.18,1.2-2.06,2.26-4.22,2.74-3.15.69-6.89,1.85-8.58,5.59a5.43,5.43,0,0,1-2.79,2.88c-3.78,1.12-5.3,4.51-7.63,7.06-.36.39-.15,1.46.05,2.15,1.25,4.36,3,8.63,3.76,13.06,1,5.33,1.13,10.8,1.75,16.19.51,4.48,1.14,9,1.8,13.42.09.58.76,1.06,1.06,1.64s.74,1.27.58,1.73c-1.06,3.13-2.5,6.15-3.35,9.33-.52,1.95-.89,4.39-.18,6.14,1.92,4.68,0,8.93-.86,13.24a49.36,49.36,0,0,1-3.39,9.74c-.81,1.91-1.61,4.1-4.53,4-.74,0-1.65,1.2-2.26,2a43.6,43.6,0,0,0-2.34,3.79c-1.13-.81-2-1.33-2.7-2-1.37-1.18-2.18-2.24-1.32-4.46,1.05-2.66,1.59-5.57-.46-8.47-.77-1.08-.05-3.22,0-4.87a16.54,16.54,0,0,1,2.66-8.52c3.9-6.58,6.24-13.7,5.9-21.63-.57-13-.75-26.07-1-39.1-.07-3.81-2.22-6.46-4.59-9-1.83-1.95-2-2.26-.65-5l3.59,2.15c.17-2.77.3-5.06.5-8.21l-3.71,3-2.64-1.69Z" transform="translate(-0.62 -31.59)"/><path d="M387,148.07l-5.3-3.48-.57.62a26.94,26.94,0,0,0,2.85,3c3,2.37,6.15,4.62,9.23,6.91,1.5,1.13,1.64,2.36.31,3.75-.75.78-1.42,1.64-2.19,2.41-2.06,2.08-4.16,1.54-5.56-1-3.2-5.81-7.31-10.61-14.62-11a10.53,10.53,0,0,0-3.46.68c-2.33.73-4.49,1.31-6.67-.67-.49-.44-2.21.48-3.6.83-1.86-4.49-4.23-9.72-6.19-15.09-2.12-5.78-7.8-8-11.58-12.32,1.8-1.78,3.65-2.93,6.47-2.71,4.12.32,8.29.08,12.44.08,0-.28.09-.57.13-.86l-4.3-1.16,26-1.39c.66,4.54,1.36,9.3,2.07,14.21h-9.13l-.12.85,12.39,4.05C382.08,140.24,387.55,143.7,387,148.07Z" transform="translate(-0.62 -31.59)"/><path d="M384.35,126.54c2.65-2.43,5.28-1.64,7.71-1.09,3.24.73,6.41,1.79,9.57,2.81,2.31.74,7,8.29,6.36,10.51-.82,2.77-3.32,2.33-5.47,2.22s-4.21-.37-7-.61c4,3.14,7.48,5.63,10.63,8.5s6.69,6,9,9.62c1.42,2.23,1,5.68,1.16,8.6,0,.42-1.31.92-2.25,1.54-.72-3.61-3.37-5-6.34-6.42-3.42-1.68-6.46-4.15-9.64-6.32a61.67,61.67,0,0,0-5.57-3.93,8.8,8.8,0,0,1-5-7.15c-.2-1.55-.93-3-1.25-4.57-.22-1.06-1.38-2.43.68-3.13.23-.08.33-1.16.18-1.68C386.31,132.47,385.32,129.54,384.35,126.54Z" transform="translate(-0.62 -31.59)"/><path d="M336.22,130.79c.68,6,1.29,11.5,1.86,16.55-6,1.16-11.08,2.43-16.26,3.06-2.71.33-5.91.63-7.61-2.76-.29-.58-1.53-.68-1.82-.8a53.69,53.69,0,0,1-4.65,3.16,2,2,0,0,1-1.9-.49,2.2,2.2,0,0,1-.06-2,22.62,22.62,0,0,1,2.16-2.83c3.64-.51,7.05-1,10.44-1.5.51-.07.95-.57,1.4-.9q6.89-5.15,13.78-10.29A22.7,22.7,0,0,1,336.22,130.79Z" transform="translate(-0.62 -31.59)"/><path d="M348.41,95.73c0-.52-.08-1-.09-1.24-2.63-.33-5.15-.52-7.6-1a2.84,2.84,0,0,1-1.68-2c-.38-4.12-.56-8.26-.76-12.4-.06-1.33.14-2.34,2-1.85,6.82,1.8,12.92,4.83,17.58,10.22,1.46,1.69,2.45,3.76,4.25,6.6Z" transform="translate(-0.62 -31.59)"/><path d="M194.25,135.89a35.17,35.17,0,0,1-2.2-4.65c-2.06-6.42-6.61-10.23-12.68-12.55a9.18,9.18,0,0,1-2.43-1c-4.73-3.68-10-6.92-13.89-11.34-3-3.36-5.85-6.33-9.72-8.5-1-.58-1.56-2-2.48-3.32,2.07-.85,3.32-1.17,3.92,1,.17.62,1,1.08,1.51,1.59,3.12,3,6.22,5.92,9.37,8.84,5.41,5,10.52,10.26,17.87,12.82,2.9,1,5.59,3.83,7.4,6.49,2,3,2.91,6.69,4.29,10.09Z" transform="translate(-0.62 -31.59)"/><path d="M426.79,346.32a55.31,55.31,0,0,1-4.13,5.13c-.61.61-2.41,1-2.76.67-.86-.89-1.79-2.37-1.63-3.47C419,343.72,421.87,342.83,426.79,346.32Z" transform="translate(-0.62 -31.59)"/><path d="M381.85,121.39c.45-2.41.41-4.27,3.33-4.11,2.16.12,4,.54,4.21,3.13.14,1.75-3.06,4.65-5.19,4.2C383.24,124.41,382.63,122.52,381.85,121.39Z" transform="translate(-0.62 -31.59)"/><path d="M293.13,137.28c4.34-.13,8.7-.52,13.72.36-3.59,3.42-6.87,5.22-11.7,4.65,1.89-1.33,5.09-.22,4.75-3.82H293Z" transform="translate(-0.62 -31.59)"/><path d="M302.9,60.28a10.41,10.41,0,0,1-2.63,1.32,9.6,9.6,0,0,0-6.2,2.89c-1.49,1.54-4.39.49-5.46-1.59-.36-.7-.7-1.41-.94-1.88Z" transform="translate(-0.62 -31.59)"/><path d="M338.56,121.69a5.47,5.47,0,0,1-1.23-.75c-.73-.78-1.37-1.65-2.28-2.77l8.6-4C345.76,117.12,345.57,117.39,338.56,121.69Z" transform="translate(-0.62 -31.59)"/><path d="M329.74,60.15a55.67,55.67,0,0,1-6.64.8c-1.21,0-2.39-1-3.64-1.19a64.6,64.6,0,0,0-7.86-.55c-2.15,0-4.3.28-6.45.13,8.25-2.15,16.43-1.55,24.6,0Z" transform="translate(-0.62 -31.59)"/><path d="M254.58,105c.82-5,7.64-11.91,13.71-13.21-1.14,1.08-1.6,1.9-2.21,2-4.45.89-6.27,4.31-8.05,7.9C257.34,103.13,257,105.2,254.58,105Z" transform="translate(-0.62 -31.59)"/><path d="M254,136.51l11.33-3,.1.45a48.71,48.71,0,0,1-6.88,3.87C257.58,138.23,256,137.14,254,136.51Z" transform="translate(-0.62 -31.59)"/><path d="M408.29,341.1c-1.63,1-2.63,2-3.8,2.27-.45.12-1.95-1.58-1.81-1.83a6.51,6.51,0,0,1,2.54-2.77C405.65,338.56,406.85,340,408.29,341.1Z" transform="translate(-0.62 -31.59)"/><path d="M419.31,337.43l-2.74-2.62c.76-.77,1.57-2.2,2.25-2.14,1,.09,1.89,1.24,2.82,1.95Z" transform="translate(-0.62 -31.59)"/><path d="M393,106.92c1.11,1.24,2.36,2,2.34,2.78s-1.38,2-2.07,2c-1-.07-1.85-1.17-2.77-1.84Z" transform="translate(-0.62 -31.59)"/><path d="M304.11,396.36c-1.2-1.14-2.56-2.13-2.44-2.39a16.13,16.13,0,0,1,2.35-3c.78.71,2.18,1.42,2.2,2.15C306.24,394,305.1,395,304.11,396.36Z" transform="translate(-0.62 -31.59)"/><path d="M222.58,136.81l-1.79,4.08H216l-.3-.41Z" transform="translate(-0.62 -31.59)"/><path d="M356.18,284.12a14.89,14.89,0,0,1,2.68,2.9c.36.67-.1,1.83-.37,2.71a2.61,2.61,0,0,1-1.79-.27,5.13,5.13,0,0,1-1.22-2.64,8.29,8.29,0,0,1,.76-2.75Z" transform="translate(-0.62 -31.59)" style="fill:#fff"/>
	</symbol>
	<symbol id="homepage" viewBox="0 0 48 48">
		<g id="Expanded"><g><g><path d="M42,48H28V35h-8v13H6V27c0-0.552,0.447-1,1-1s1,0.448,1,1v19h10V33h12v13h10V28c0-0.552,0.447-1,1-1s1,0.448,1,1V48z"/></g><g><path d="M47,27c-0.249,0-0.497-0.092-0.691-0.277L24,5.384L1.691,26.723c-0.399,0.381-1.032,0.368-1.414-0.031     c-0.382-0.399-0.367-1.032,0.031-1.414L24,2.616l23.691,22.661c0.398,0.382,0.413,1.015,0.031,1.414     C47.526,26.896,47.264,27,47,27z"/></g><g><path d="M39,15c-0.553,0-1-0.448-1-1V8h-6c-0.553,0-1-0.448-1-1s0.447-1,1-1h8v8C40,14.552,39.553,15,39,15z"/></g></g></g>
	</symbol>
	<symbol id="watch" viewBox="0 0 32 32">
		<g id="Fill"><path d="M16,2A14,14,0,1,0,30,16,14,14,0,0,0,16,2Zm0,26A12,12,0,1,1,28,16,12,12,0,0,1,16,28Z"/><path d="M17,7H15v8.52a2,2,0,0,0,.75,1.56l4.63,3.7,1.24-1.56L17,15.52Z"/></g>
	</symbol>
	<symbol id="comm" viewBox="0 0 48 48">
		<g><path d="M42,45.3l-13.3-3.7C27.3,41.9,25.8,42,24,42C11.3,42,2,33.6,2,22c0-5.4,1.9-10.1,5.6-13.8C11.7,4.2,17.6,2,24,2   c12.7,0,22,8.4,22,20c0,4.3-1.4,8.5-4,11.8V45.3z M28.7,39.6L40,42.7v-9.5l0.2-0.3C42.7,29.8,44,26,44,22c0-10.4-8.4-18-20-18   C18,4,12.7,6,9,9.6C5.7,12.9,4,17.2,4,22c0,10.4,8.4,18,20,18c1.8,0,3.2-0.1,4.5-0.4L28.7,39.6z"/></g>
	</symbol>
	<symbol id="categoty" viewBox="0 0 32 32">
		<g><g><path d="M11,21H3c-0.5527344,0-1-0.4472656-1-1v-8c0-0.5527344,0.4472656-1,1-1h8c0.5527344,0,1,0.4472656,1,1v8    C12,20.5527344,11.5527344,21,11,21z M4,19h6v-6H4V19z"/></g><g><path d="M29,28h-8c-0.5527344,0-1-0.4472656-1-1v-8c0-0.5527344,0.4472656-1,1-1h8c0.5527344,0,1,0.4472656,1,1v8    C30,27.5527344,29.5527344,28,29,28z M22,26h6v-6h-6V26z"/></g><g><path d="M29,12h-8c-0.5527344,0-1-0.4472656-1-1V3c0-0.5527344,0.4472656-1,1-1h8c0.5527344,0,1,0.4472656,1,1v8    C30,11.5527344,29.5527344,12,29,12z M22,10h6V4h-6V10z"/></g><g><path d="M16,32c-0.5527344,0-1-0.4472656-1-1V1c0-0.5527344,0.4472656-1,1-1s1,0.4472656,1,1v30    C17,31.5527344,16.5527344,32,16,32z"/></g><g><path d="M16,17h-5c-0.5527344,0-1-0.4472656-1-1s0.4472656-1,1-1h5c0.5527344,0,1,0.4472656,1,1S16.5527344,17,16,17z"/></g><g><path d="M21,8h-5c-0.5527344,0-1-0.4472656-1-1s0.4472656-1,1-1h5c0.5527344,0,1,0.4472656,1,1S21.5527344,8,21,8z"/></g><g><path d="M21,24h-5c-0.5527344,0-1-0.4472656-1-1s0.4472656-1,1-1h5c0.5527344,0,1,0.4472656,1,1S21.5527344,24,21,24z"/></g></g>
	</symbol>
	<symbol id="edit" viewBox="0 0 19 19">
		<g><path d="M8.44,7.25C8.348,7.342,8.277,7.447,8.215,7.557L8.174,7.516L8.149,7.69   C8.049,7.925,8.014,8.183,8.042,8.442l-0.399,2.796l2.797-0.399c0.259,0.028,0.517-0.007,0.752-0.107l0.174-0.024l-0.041-0.041   c0.109-0.062,0.215-0.133,0.307-0.225l5.053-5.053l-3.191-3.191L8.44,7.25z"/><path d="M18.183,1.568l-0.87-0.87c-0.641-0.641-1.637-0.684-2.225-0.097l-0.797,0.797l3.191,3.191l0.797-0.798   C18.867,3.205,18.824,2.209,18.183,1.568z"/><path d="M15,9.696V17H2V2h8.953l1.523-1.42c0.162-0.161,0.353-0.221,0.555-0.293   c0.043-0.119,0.104-0.18,0.176-0.287H0v19h17V7.928L15,9.696z"/></g>
	</symbol>
	<symbol id="trash" viewBox="0 0 64 64">
		<path d="M11.06,64l-.16-2.72L8.7,19.39h5.75L16.5,58.25h31l2-38.86H55.3L53,64H11.06ZM44.22,0V7.19H60v5.75H4V7.19H19.78V0ZM24.81,7.19H39.19V3.6H24.81Zm3.72,46.37L27.8,19.39h-5l.73,34.17Zm11.86,0,.73-34.17h-5l-.73,34.17Z" id="_Compound_Path_"/>
	</symbol>
</svg>