<svg xmlns="http://www.w3.org/2000/svg">
    <symbol id="sly_reverse" viewBox="0 0 1078.44 177.13">
        <g>
            <g>
                <path fill="#FFFFFF" d="M80.58,0c12.96,7.45,22.29,19.26,24.62,34.57c0.04,0.02,0.08,0.04,0.12,0.06l8.33-25.99
                    C105.57,4.72,94.84,1.33,80.58,0z"/>
                <path fill="#FFFFFF" d="M54.17,99.8c24.32,7.29,33.1,14.89,33.1,27.56c0,14.06-11.9,23.33-33.02,23.33
                    c-7.58,0-14.9-1.01-21.69-2.64c5.23,14.69,21.7,21.75,37.37,21.75c13.2,0,25.19-3.54,35.01-8.8c10.93-9.65,15.9-22.5,15.9-35.65
                    c0-26.78-16.25-41.2-48.78-51.69c-24.75-7.91-35.72-14.16-35.72-27.29c0-10.03,8.82-20.67,30.25-20.67c4.86,0,9.38,0.4,13.52,1.03
                    C75.09,17.31,63.41,9.53,46.78,9.53C33.9,9.4,23.14,13.5,16.7,16.85C7.85,25.4,2.92,36.56,2.92,49.17
                    C2.92,75.82,22.65,90.43,54.17,99.8z"/>
                <path fill="#FFFFFF" d="M7.94,138.48c-0.06-0.04-0.13-0.07-0.19-0.11L0,165.23c6.41,3.87,16.43,7.46,27.71,9.72
                    C15.72,165.85,8.76,152.93,7.94,138.48z"/>
            </g>
            <g>
                <path fill="#FFFFFF" d="M137.6,76.68c0-6.96,3.88-10.44,11.63-10.44c7.75,0,11.63,3.48,11.63,10.44c0,3.32-0.97,5.9-2.91,7.74
                    c-1.94,1.85-4.85,2.77-8.72,2.77C141.47,87.18,137.6,83.68,137.6,76.68z M159.88,175.24h-21.37V96.92h21.37V175.24z"/>
                <path fill="#FFFFFF" d="M215.29,159.61c3.74,0,8.22-0.82,13.45-2.45v15.9c-5.32,2.38-11.86,3.57-19.61,3.57
                    c-8.55,0-14.77-2.16-18.67-6.48c-3.9-4.32-5.85-10.8-5.85-19.44v-37.76h-10.23v-9.04l11.77-7.15l6.16-16.53h13.66v16.67h21.93
                    v16.04h-21.93v37.76c0,3.04,0.85,5.28,2.56,6.72C210.23,158.89,212.48,159.61,215.29,159.61z"/>
                <path fill="#FFFFFF" d="M280.01,176.64c-12.61,0-22.46-3.48-29.56-10.44c-7.1-6.96-10.65-16.81-10.65-29.56
                    c0-13.12,3.28-23.27,9.84-30.44c6.56-7.17,15.63-10.75,27.21-10.75c11.07,0,19.68,3.15,25.85,9.46c6.16,6.3,9.25,15.01,9.25,26.13
                    v10.37h-50.51c0.23,6.07,2.03,10.81,5.39,14.22s8.08,5.11,14.15,5.11c4.72,0,9.18-0.49,13.38-1.47c4.2-0.98,8.59-2.55,13.17-4.69
                    v16.53c-3.74,1.87-7.73,3.26-11.98,4.17C291.31,176.18,286.13,176.64,280.01,176.64z M277,110.65c-4.53,0-8.08,1.44-10.65,4.31
                    c-2.57,2.87-4.04,6.95-4.41,12.22h29.98c-0.09-5.28-1.47-9.35-4.13-12.22C285.13,112.09,281.53,110.65,277,110.65z"/>
                <path fill="#7ACC13" d="M331.01,175.24V72.82h21.72v84.48h41.54v17.93H331.01z"/>
                <path fill="#7ACC13" d="M409.46,76.68c0-6.96,3.88-10.44,11.63-10.44c7.75,0,11.63,3.48,11.63,10.44c0,3.32-0.97,5.9-2.91,7.74
                    c-1.94,1.85-4.85,2.77-8.72,2.77C413.34,87.18,409.46,83.68,409.46,76.68z M431.74,175.24h-21.37V96.92h21.37V175.24z"/>
                <path fill="#7ACC13" d="M474.68,132.64l9.32-11.91l21.93-23.82h24.1l-31.1,33.97l32.99,44.34h-24.66L484.7,143.5l-9.18,7.36v24.38
                    h-21.37v-109h21.37v48.62l-1.12,17.79H474.68z"/>
                <path fill="#7ACC13" d="M578.57,176.64c-12.61,0-22.46-3.48-29.56-10.44c-7.1-6.96-10.65-16.81-10.65-29.56
                    c0-13.12,3.28-23.27,9.84-30.44c6.56-7.17,15.63-10.75,27.22-10.75c11.07,0,19.68,3.15,25.85,9.46c6.16,6.3,9.25,15.01,9.25,26.13
                    v10.37H560c0.23,6.07,2.03,10.81,5.39,14.22c3.36,3.41,8.08,5.11,14.15,5.11c4.72,0,9.18-0.49,13.38-1.47
                    c4.2-0.98,8.59-2.55,13.17-4.69v16.53c-3.74,1.87-7.73,3.26-11.98,4.17C589.87,176.18,584.68,176.64,578.57,176.64z
                     M575.55,110.65c-4.53,0-8.08,1.44-10.65,4.31c-2.57,2.87-4.04,6.95-4.41,12.22h29.98c-0.09-5.28-1.47-9.35-4.13-12.22
                    C583.68,112.09,580.08,110.65,575.55,110.65z"/>
                <path fill="#FFFFFF" d="M661.43,114.99l21.37-42.17h23.4l-33.97,62.56v39.86h-21.58v-39.16l-33.97-63.25h23.54L661.43,114.99z"/>
                <path fill="#FFFFFF" d="M788.58,135.94c0,12.75-3.36,22.72-10.09,29.91c-6.72,7.19-16.09,10.79-28.09,10.79
                    c-7.52,0-14.15-1.65-19.89-4.94c-5.74-3.29-10.16-8.02-13.24-14.19c-3.08-6.16-4.62-13.35-4.62-21.57
                    c0-12.8,3.34-22.74,10.02-29.84c6.68-7.1,16.07-10.65,28.16-10.65c7.52,0,14.15,1.63,19.89,4.9c5.74,3.27,10.16,7.96,13.24,14.08
                    C787.04,120.55,788.58,127.72,788.58,135.94z M734.43,135.94c0,7.75,1.27,13.61,3.82,17.58c2.54,3.97,6.69,5.95,12.43,5.95
                    c5.7,0,9.8-1.97,12.29-5.92c2.5-3.95,3.75-9.82,3.75-17.62c0-7.75-1.26-13.57-3.78-17.44c-2.52-3.88-6.66-5.81-12.4-5.81
                    c-5.7,0-9.81,1.93-12.33,5.78C735.69,122.31,734.43,128.14,734.43,135.94z"/>
                <path fill="#FFFFFF" d="M861.71,175.24l-2.87-10.02h-1.12c-2.29,3.64-5.53,6.46-9.74,8.44c-4.2,1.98-8.99,2.98-14.36,2.98
                    c-9.2,0-16.13-2.46-20.8-7.39c-4.67-4.93-7-12.01-7-21.26V96.92h21.37v45.74c0,5.65,1,9.89,3.01,12.71
                    c2.01,2.83,5.21,4.24,9.6,4.24c5.98,0,10.3-2,12.96-5.99c2.66-3.99,3.99-10.61,3.99-19.86V96.92h21.37v78.32H861.71z"/>
                <path fill="#FFFFFF" d="M897.5,165.22c0-3.92,1.05-6.89,3.15-8.9c2.1-2.01,5.16-3.01,9.18-3.01c3.88,0,6.88,1.03,9,3.08
                    c2.13,2.06,3.19,5,3.19,8.83c0,3.69-1.07,6.6-3.22,8.72c-2.15,2.13-5.14,3.19-8.97,3.19c-3.92,0-6.96-1.04-9.11-3.12
                    C898.58,171.93,897.5,169,897.5,165.22z"/>
                <path fill="#FFFFFF" d="M985.14,95.45c2.9,0,5.3,0.21,7.22,0.63l-1.61,20.04c-1.73-0.47-3.83-0.7-6.3-0.7
                    c-6.82,0-12.13,1.75-15.94,5.25c-3.81,3.5-5.71,8.41-5.71,14.71v39.86h-21.36V96.92h16.18l3.15,13.17h1.05
                    c2.43-4.39,5.71-7.93,9.84-10.61C975.79,96.79,980.28,95.45,985.14,95.45z"/>
                <path fill="#FFFFFF" d="M1062.05,175.24l-2.87-10.02h-1.12c-2.29,3.64-5.53,6.46-9.74,8.44c-4.2,1.98-8.99,2.98-14.36,2.98
                    c-9.2,0-16.13-2.46-20.8-7.39c-4.67-4.93-7-12.01-7-21.26V96.92h21.37v45.74c0,5.65,1,9.89,3.01,12.71
                    c2.01,2.83,5.21,4.24,9.6,4.24c5.98,0,10.3-2,12.96-5.99c2.66-3.99,3.99-10.61,3.99-19.86V96.92h21.37v78.32H1062.05z"/>
            </g>
        </g>
    </symbol>
	<symbol id="homepage" viewBox="0 0 48 48">
		<g id="Expanded"><g><g><path d="M42,48H28V35h-8v13H6V27c0-0.552,0.447-1,1-1s1,0.448,1,1v19h10V33h12v13h10V28c0-0.552,0.447-1,1-1s1,0.448,1,1V48z"/></g><g><path d="M47,27c-0.249,0-0.497-0.092-0.691-0.277L24,5.384L1.691,26.723c-0.399,0.381-1.032,0.368-1.414-0.031     c-0.382-0.399-0.367-1.032,0.031-1.414L24,2.616l23.691,22.661c0.398,0.382,0.413,1.015,0.031,1.414     C47.526,26.896,47.264,27,47,27z"/></g><g><path d="M39,15c-0.553,0-1-0.448-1-1V8h-6c-0.553,0-1-0.448-1-1s0.447-1,1-1h8v8C40,14.552,39.553,15,39,15z"/></g></g></g>
	</symbol>
	<symbol id="look" viewBox="0 0 454.027 454.027">
		<g id="XMLID_304_">
			<path id="XMLID_305_" d="M367.74,140.08c-14.427-10.357-32.066-16.525-51.183-16.525c-2.635,0-5.228,0.164-7.803,0.396
				C298.32,114.758,284.783,109,269.787,109c-16.861,0-31.991,7.132-42.772,18.452C216.231,116.132,201.101,109,184.24,109
				c-14.995,0-28.533,5.758-38.966,14.95c-2.575-0.231-5.168-0.396-7.803-0.396c-19.117,0-36.756,6.168-51.183,16.525
				C37.413,148.197,0,190.651,0,241.796c0,56.926,46.306,103.231,103.231,103.231c40.123,0,74.885-23.052,91.963-56.566
				c7.937,7.414,18.511,12.045,30.206,12.045c12.807,0,24.269-5.526,32.387-14.219c16.66,34.68,52.026,58.74,93.008,58.74
				c56.925,0,103.231-46.306,103.231-103.231C454.027,190.651,416.615,148.197,367.74,140.08z M103.231,314.439
				c-40.055,0-72.645-32.588-72.645-72.643c0-40.056,32.589-72.645,72.645-72.645s72.644,32.589,72.644,72.645
				C175.875,281.852,143.287,314.439,103.231,314.439z M225.401,273.98c-9.864,0-17.886-8.02-17.886-17.884
				c0-9.866,8.022-17.886,17.886-17.886c9.864,0,17.892,8.02,17.892,17.886C243.292,265.961,235.265,273.98,225.401,273.98z
				 M350.796,314.439c-40.056,0-72.645-32.588-72.645-72.643c0-40.056,32.589-72.645,72.645-72.645
				c40.055,0,72.645,32.589,72.645,72.645C423.44,281.852,390.851,314.439,350.796,314.439z"/>
			<path id="XMLID_310_" d="M102.688,179.104c-34.568,0-62.692,28.123-62.692,62.692c0,5.522,4.477,10,10,10c5.523,0,10-4.478,10-10
				c0-23.541,19.151-42.692,42.692-42.692c5.523,0,10-4.478,10-10C112.688,183.58,108.21,179.104,102.688,179.104z"/>
			<path id="XMLID_311_" d="M350.719,179.104c-34.568,0-62.692,28.123-62.692,62.692c0,5.522,4.477,10,10,10c5.523,0,10-4.478,10-10
				c0-23.541,19.151-42.692,42.692-42.692c5.523,0,10-4.478,10-10C360.719,183.58,356.242,179.104,350.719,179.104z"/>
		</g>
	</symbol>
	<symbol id="angle-double-left" viewBox="0 0 1792 1792">
		<path d="M1011 1376q0 13-10 23l-50 50q-10 10-23 10t-23-10l-466-466q-10-10-10-23t10-23l466-466q10-10 23-10t23 10l50 50q10 10 10 23t-10 23l-393 393 393 393q10 10 10 23zm384 0q0 13-10 23l-50 50q-10 10-23 10t-23-10l-466-466q-10-10-10-23t10-23l466-466q10-10 23-10t23 10l50 50q10 10 10 23t-10 23l-393 393 393 393q10 10 10 23z"/>
	</symbol>
	<symbol id="graduation-cap" viewBox="0 0 391.52 337.33">
		<path d="M385.55,67.23,198.79.52a9.13,9.13,0,0,0-6.06,0L6,67.23a9,9,0,0,0,.18,17l75.64,25.22v87.9A9,9,0,0,0,88.31,206l105,30.2a8.79,8.79,0,0,0,5,0l33.05-9.51a9,9,0,1,0-5-17.29l-30.56,8.79-96-27.61V115.46l93.12,31.05a9,9,0,0,0,5.7,0l16.72-5.57h0l14.08-4.7a9,9,0,1,0-5.69-17.08l-28,9.33-83.69-27.91L36.58,75.41,195.76,18.56,355,75.41l-57.07,19h0l-7,2.35L285,98.72h0l-9,3a9,9,0,0,0,5.69,17.08l10-3.34v75.13l-11.22,3.22a9,9,0,1,0,5,17.3l17.73-5.1a9,9,0,0,0,6.51-8.65v-87.9l75.64-25.22a9,9,0,0,0,.18-17Z"/><path d="M265,117.65c0-.21,0-.41,0-.62s0-.3-.06-.45l-.06-.42-.12-.49-.09-.36c-.05-.16-.11-.31-.17-.47s-.08-.24-.13-.36-.12-.28-.19-.41l-.18-.39-.21-.36c-.08-.13-.16-.27-.25-.4s-.15-.21-.23-.32-.18-.26-.28-.38-.2-.23-.31-.34a4.12,4.12,0,0,0-.28-.31c-.16-.17-.33-.32-.5-.47l-.14-.12,0,0,0,0L201.52,60.87A9,9,0,1,0,190,74.7l57,47.41V281.67a22,22,0,0,0-17.52,21.49v12.23a22,22,0,0,0,21.95,21.94h12.22a22,22,0,0,0,21.94-21.94V303.16A22,22,0,0,0,265,281.27V117.94h0v0A1,1,0,0,0,265,117.65Zm2.6,185.51v12.23a3.94,3.94,0,0,1-3.94,3.94H251.41a4,4,0,0,1-3.95-3.94V303.16a4,4,0,0,1,3.95-3.94h12.22A3.94,3.94,0,0,1,267.57,303.16Z"/>
	</symbol>
	<symbol id="lessons" viewBox="0 0 64 64">
		<path d="M62.869,16.842h-0.057c-1.096,0.007-1.266-0.945-1.285-1.387V8.542c0-0.738-0.598-1.336-1.334-1.336H40.428  c-4.959,0-6.809,1.838-7.268,2.415l-0.126,0.175l-0.001,0.003l-0.391,0.536c-0.001,0-0.001,0-0.001,0  c-0.525,0.721-0.982,0.414-1.202,0.178l-0.748-0.933l-0.37-0.446c-0.622-0.653-2.243-1.928-5.456-1.928H3.808  c-0.738,0-1.336,0.598-1.336,1.336v6.825c0,1.195-0.649,1.435-1.047,1.475H1.129c-0.324,0.02-1.078,0.208-1.078,1.595v32.529  c0,0.798,0.647,1.444,1.445,1.444h19.218c6.131,0,8.803,2.312,9.604,3.199l0.457,0.566h0.001c0,0,1.226,1.387,2.518,0l0,0  l0.268-0.314v0.001l0.004-0.003l0.342-0.4c0.01-0.012,0.092-0.104,0.211-0.226c1.023-0.995,3.58-2.823,8.58-2.823h19.805  c0.799,0,1.445-0.646,1.445-1.444V18.122C63.949,16.946,63.098,16.848,62.869,16.842z M58.551,45.862  c0,0.641-0.535,1.158-1.201,1.158H41.055c-5.799,0-7.904,2.62-7.904,2.62l-0.267,0.358l-0.125,0.173c-0.001,0-0.001,0-0.001,0  c-0.553,0.751-1.366,0.006-1.37,0.002l-0.375-0.469c-0.278-0.334-2.408-2.685-7.563-2.685h-16.8c-0.663,0-1.199-0.518-1.199-1.158  V11.199c0-0.64,0.536-1.158,1.199-1.158h13.043c9.702,0,10.621,5.511,10.684,7.112v24.106c0,1.752,0.835,2.081,1.306,2.129h0.701  c0.48-0.048,1.243-0.333,1.243-1.7V16.842h-0.008c0.072-2.005,0.854-6.802,6.689-6.802H57.35c0.666,0,1.201,0.518,1.201,1.158  V45.862z"/>
	</symbol>
	<symbol id="scroll" viewBox="0 0 86.27 81.6">
		<path d="M93,36c4-18-5-25-5-25l-6,6L72,10s0-1-8,0C56,28,29,46,29,46L12,58a24.75,24.75,0,0,0-4,6C5,92,31,89,31,89L58,61l5,4-1,6a79.67,79.67,0,0,0-1,11c3,6,6,10,8,9s1-8,1-8l6,3,1-6h3V75h6V73c-4-1-10-9-12-13a9.13,9.13,0,0,0-2-8V49C79,41,88,39,93,36ZM42,41h4l4,4c1,3-1,3-1,3L33,58l4,6-3,2L25,54ZM22,73V72h1V71l2-1V69h2V68h1v4H27v1H25v1H24V73Zm17,2L30,85H23c-6-2-7-5-10-10-3-11,3-15,3-15a18.58,18.58,0,0,1,8,0c4,2,0,4,0,4-6,6-7,10-7,10l4,4h8l7-7h3ZM56,58,45,70H44V66l-4-7,11-7V50h3l1,3,1,1Zm0-31L68,13l10,7L66,33Zm5,25-3-3,1-3,4,4Zm2-10,1-2h1l2,4v2l-1,1-2-2Zm5,11,2,1,1,3-2,2-3-2V54ZM67,82H66l1-7-2-9,4-2,1,9,2,5ZM79,72l-5,3L72,64ZM69,36V35L88,16l2,4V33c-7,1-18,11-18,11Z" transform="translate(-7.76 -9.56)"/>
	</symbol>
	<symbol id="profile" viewBox="0 0 32 32">
		<path d="m16 31c-8.271 0-15-6.729-15-15s6.729-15 15-15 15 6.729 15 15-6.729 15-15 15zm0-29c-7.72 0-14 6.28-14 14s6.28 14 14 14 14-6.28 14-14-6.28-14-14-14z"/><path d="m23.64 20.713-4.762-1.652-0.323-2.584c-0.215 0.307-0.523 0.546-0.924 0.671l0.293 2.345c0.023 0.189 0.152 0.349 0.332 0.41l5.055 1.756c0.9 0.314 1.689 1.427 1.689 2.381v-7e-3c0 0.276 0.224 0.5 0.5 0.5 0.275 0 0.499-0.223 0.5-0.498-3e-3 -1.379-1.06-2.867-2.36-3.322z"/><path d="m6.5 24.532c-0.276 0-0.5-0.224-0.5-0.5v7e-3c0-1.379 1.059-2.871 2.359-3.326l4.762-1.641 0.012-0.28c0.034-0.274 0.289-0.465 0.559-0.434 0.273 0.034 0.468 0.284 0.434 0.559l-0.051 0.589c-0.023 0.189-0.153 0.348-0.333 0.41l-5.054 1.742c-0.899 0.315-1.688 1.428-1.688 2.381v-7e-3c0 0.277-0.224 0.5-0.5 0.5z" /><path d="m16 18.039c-2.779 0-4.192-1.844-4.201-6.469-2e-3 -1.174 0.123-2.363 1.227-3.469 0.703-0.705 1.703-1.062 2.974-1.062s2.271 0.357 2.975 1.063c1.104 1.105 1.229 2.295 1.227 3.469-0.01 4.624-1.423 6.468-4.202 6.468zm0-10c-1.009 0-1.75 0.252-2.267 0.769-0.632 0.633-0.938 1.2-0.935 2.761 8e-3 4.018 1.055 5.471 3.201 5.471s3.193-1.453 3.201-5.471c3e-3 -1.561-0.303-2.128-0.935-2.761-0.515-0.517-1.256-0.769-2.265-0.769z"/>
	</symbol>
	<symbol id="support" viewBox="0 0 512 512">
		<path d="m59.064 217.85c1.656 4.71 3.31 9.415 5.219 14.017 16.339 39.354 43.92 73.093 84.317 103.13 11.142 8.289 15.778 18.022 15.025 31.538-0.491 8.594-0.27 17.762 0.674 28.043 0.496 5.322 4.279 8.758 9.646 8.758 0 0 0.748-8e-3 1.135-0.043 5.615-0.504 8.555-4.063 8.742-10.576l0.122-5.011c0.096-4.366 0.191-8.715 0.509-13.056 1.266-17.282 0.065-39.079-20.618-54.248-4.049-2.976-7.915-6.193-11.777-9.42-2.583-2.148-5.166-4.306-7.802-6.385-27.377-21.51-48.617-51.218-64.938-90.824-2.905-7.071-4.745-13.286 2.218-17.705 1.844-1.161 3.562-1.727 5.258-1.727 3.975 0 7.293 3.231 10.503 6.354l1.209 1.166c5.728 5.471 10.89 11.781 15.782 19.288 16.057 24.693 36.705 37.853 63.13 40.223 4.775 0.431 9.611 1.383 14.295 2.301 4.797 0.943 9.759 1.918 14.699 2.349 15.365 1.335 24.902 9.464 30.017 25.589 1.592 4.993 3.779 10.334 9.659 10.334 0.883 0 1.835-0.131 2.835-0.375 8.698-2.148 8.511-9.472 7.375-15.595-3.179-17.292-20.818-35.388-37.753-38.745-13.965-2.774-28.12-5.045-41.337-7.084-4.554-0.705-7.189-1.892-8.55-3.857-1.344-1.948-1.557-4.814-0.666-9.011 4.889-22.858 3.536-46.956-4.14-73.671-5.945-20.775-11.703-42.603-17.113-64.887-0.239-0.983-0.661-2.092-1.104-3.244-1.774-4.605-2.636-7.746 1.417-9.346 0.761-0.3 1.509-0.453 2.227-0.453 3.849 0 6.706 4.228 9.672 8.616 1.522 2.222 2.648 4.832 3.731 7.35l1.113 2.54c6.38 14.056 11.146 28.981 15.756 43.416 1.835 5.74 3.667 11.477 5.602 17.183 3.801 11.212 8.941 24.11 18.209 34.796 2.131 2.462 5.471 5.732 9.916 5.732 1.522 0 3.079-0.388 4.636-1.157 5.35-2.653 5.245-7.628 5.136-12.951-0.644-34.992-1.196-69.983-1.461-104.98-0.069-8.415 0.579-16.313 1.944-23.523 1.109-5.775 2.366-12.329 9.011-12.329 0.5 0 1.031 0.039 1.592 0.113 7.559 1.004 7.693 8.815 7.102 13.386-3.253 25.445 1.926 50.256 6.937 74.25 3.892 18.64 7.915 37.914 7.915 57.271 0 2.131 0.805 4.296 1.414 5.745 1.979 4.614 5.384 7.067 10.542 7.067h0.052c4.375-0.23 7.271-2.914 8.394-7.763 0.757-3.366 1.313-7.015 1.679-11.155 1.018-11.594 1.992-23.193 2.966-34.787 1.801-21.371 3.593-42.742 5.646-64.086 0.557-5.792 2.975-19.257 13.343-19.257l1.018 0.039c7.767 0.626 7.575 8.176 7.385 15.479-0.035 1.574-0.07 3.118-0.035 4.54 0.043 1.191-0.14 2.392-0.392 4.022-2.714 17.966-3.157 36.393-3.575 54.21-0.539 22.48-1.096 45.721-6.228 68.183-1.062 4.649 0.026 10.376 6.254 12.521 1.209 0.408 2.374 0.617 3.487 0.617 3.68 0 6.698-2.222 8.951-6.602 0.452-0.879 0.947-1.748 1.435-2.623 1.366-2.427 2.783-4.936 3.462-7.65 5.176-20.927 14.465-40.576 23.449-59.581 4.314-9.12 8.768-18.548 12.717-28.007 0.261-0.626 0.487-1.353 0.705-2.096 0.791-2.67 1.47-4.423 3.409-4.423 0.487 0 1.052 0.109 1.696 0.317 2.861 0.957 4.157 3.832 3.853 8.55-0.669 10.537-2.87 21.019-6.532 31.151-19.466 53.64-26.484 99.926-22.075 145.66 2.201 22.997-4.905 41.732-21.118 55.702-10.803 9.289-13.821 23.649-9.237 43.906 1.479 6.489 5.854 10.508 11.411 10.508 0.957 0 1.975-0.122 3.001-0.349 8.446-1.939 7.106-9.289 6.132-14.665-2.644-14.481 0.609-24.162 10.525-31.373 7.862-5.715 11.255-15.178 13.986-22.797 6.471-17.979 6.254-36.723 5.549-52.893-1.844-40.94 3.297-76.337 15.709-108.21 6.94-17.813 11.759-36.548 14.334-55.684 1.879-13.995-6.803-27.363-20.197-31.104-2.835-0.787-5.514-1.188-7.949-1.188-9.586 0-16.526 5.893-21.867 18.535-2.939 6.915-6.123 13.712-9.324 20.514l-3.096 6.641c-0.826-9.324-0.696-19.022 0.391-29.538 1.436-14.043 2.462-26.694 0.565-39.319-2.365-15.821-12.673-26.45-25.667-26.45-5.55 0-11.212 2.014-16.379 5.814-10.42 7.654-16.873 17.443-19.188 29.099-1.53 7.729-1.982 15.644-2.427 23.298-0.069 1.278-0.147 2.553-0.217 3.831-1.861-12.325-2.14-24.806-2.409-36.94-0.113-4.871-0.218-9.742-0.422-14.608-0.771-17.896-8.59-28.042-23.232-30.151-1.4-0.2-2.788-0.3-4.158-0.3-13.399 0-24.489 9.215-28.947 24.054-3.522 11.781-5.253 23.945-5.149 36.157 0.104 12.32 0.083 24.637 0.062 36.953l-0.022 14.93-0.148 0.031-0.805-2.37c-0.644-1.914-1.287-3.832-2.005-5.719-1.592-4.166-3.097-8.376-4.601-12.586-4.871-13.634-9.907-27.729-18.105-40.175-6.006-9.12-17.104-15.248-27.616-15.248-3.249 0-6.236 0.592-8.876 1.757-11.933 5.267-16.187 16.844-12.299 33.474 3.823 16.361 8.363 32.822 12.756 48.743l2.966 10.786c6.593 24.076 10.477 44.498 7.989 65.921-0.074 0.692-0.126 1.431-0.174 2.179-0.205 3.075-0.413 6.254-2.766 7.176-0.565 0.222-1.113 0.335-1.618 0.335-2.296 0-3.923-2.34-5.497-4.601-0.475-0.683-0.936-1.344-1.4-1.927-2.779-3.458-5.293-7.245-7.729-10.907-1.135-1.709-2.27-3.418-3.431-5.102-5.188-7.541-12.464-16.961-22.784-22.971-5.897-3.427-11.829-5.163-17.626-5.163-5.784 0-11.307 1.735-16.426 5.167-13.169 8.833-17.383 20.114-12.529 33.535l2.018 5.688z"/><path d="m457.92 369.14c-20.266-11.272-43.176-13.994-65.338-16.63-8.941-1.062-18.188-2.166-27.104-3.81-0.53-0.096-1.053-0.14-1.565-0.14-4.279 0-7.802 3.219-8.567 7.828-0.817 5.011 1.618 8.925 6.688 10.733 3.845 1.357 7.968 2.471 12.256 3.288 8.411 1.565 16.83 3.079 25.25 4.601 10.368 1.87 20.728 3.731 31.052 5.697 12.177 2.331 26.459 7.046 28.755 22.963 2.019 13.899-4.714 25.589-20.554 35.714-22.475 14.334-47.855 23.945-77.594 29.382-9.776 1.791-19.918 2.679-29.721 3.539-4.871 0.427-9.742 0.853-14.604 1.383-4.088 0.461-12.612 1.427-11.934 10.629 0.626 8.551 8.236 8.925 13.273 9.168 1.617 0.087 3.235 0.122 4.853 0.122l7.846-0.078c46.082-2.88 87.022-15.718 121.68-38.141 18.674-12.09 29.451-30.495 28.824-49.23-0.521-15.499-9.079-28.999-23.501-37.018z"/><path d="m159.8 468.98c-17.087-1.287-33.765-5.889-49.899-10.333l-7.176-1.975c-16.104-4.393-31.104-13.455-44.577-26.938-4.81-4.818-7.306-11.081-6.845-17.187 0.4-5.358 3.031-10.09 7.397-13.317 20.332-15.064 44.02-25.023 72.415-30.469 1.509-0.277 3.131-0.383 4.736-0.469 5.514-0.34 11.768-0.714 11.485-9.377-0.353-10.629-9.794-10.716-17.378-10.785l-1.27-0.018c-3.179 0-5.667 0.313-7.819 0.992-26.455 8.123-50.122 16.064-71.814 30.842-10.216 6.959-20.218 16.318-16.987 32.696-2.009 13.847 2.262 24.38 14.273 35.2 32.518 29.313 73.128 35.939 112.4 42.359 1.261 0.208 2.562 0.33 3.84 0.33 7.21 0 11.524-3.705 11.838-10.159 0.512-10.262-9.33-10.992-14.618-11.392z"/><path d="m360.36 431.47c5.775-2.627 11.742-5.332 8.663-13.743-1.713-4.714-5.045-7.098-9.898-7.098-2.209 0-4.696 0.47-7.811 1.462-1.705 0.539-3.322 1.27-4.957 2-0.939 0.426-1.879 0.853-2.845 1.235-34.313 13.708-65.661 20.379-95.838 20.379-25.172 0-49.904-4.836-73.511-14.378-6.584-2.661-13.068-5.566-19.553-8.472-6.706-2.991-13.412-6.001-20.223-8.732-1.922-0.782-3.857-1.191-5.597-1.191-2.835 0-6.628 1.052-8.593 6.079-2.179 5.585 0.095 10.412 6.406 13.621 32.735 16.526 71.67 34.201 119.58 34.566h0.039l0.035-0.01c36.523-2.617 75.402-7.436 112.26-24.867l1.853-0.851z"/>
	</symbol>
	<symbol id="help" viewBox="0 0 800 800">
		<path d="M399.996,34.504C198.458,34.504,34.504,198.463,34.504,400s163.954,365.495,365.492,365.495  c201.536,0,365.499-163.958,365.499-365.495S601.532,34.504,399.996,34.504z M583.45,371.083h148.735  c0.83,9.536,1.338,19.166,1.338,28.917c0,9.745-0.508,19.371-1.338,28.907H583.45c1.491-9.447,2.48-19.055,2.48-28.907  C585.931,390.138,584.932,380.53,583.45,371.083z M727.849,339.111H577.981c-0.819,0-1.613,0.125-2.407,0.241  c-18.689-53.926-61.438-96.575-115.443-115.113c0.456-1.472,0.768-3.002,0.768-4.621V72.149  C596.046,97.199,702.802,203.954,727.849,339.111z M399.996,553.958c-84.891,0-153.963-69.064-153.963-153.958  c0-84.895,69.073-153.959,153.963-153.959c84.897,0,153.964,69.064,153.964,153.959C553.96,484.894,484.894,553.958,399.996,553.958  z M428.925,67.81v148.744c-9.454-1.485-19.064-2.484-28.929-2.484c-9.849,0-19.458,0.995-28.895,2.479V67.806  c9.527-0.821,19.153-1.33,28.895-1.33C409.745,66.476,419.381,66.984,428.925,67.81z M339.129,72.141v147.478  c0,1.614,0.312,3.145,0.758,4.612c-54.015,18.528-96.772,61.192-115.469,115.122c-0.785-0.116-1.579-0.241-2.409-0.241H72.141  C97.19,203.944,203.962,97.186,339.129,72.141z M66.476,400c0-9.751,0.509-19.381,1.33-28.917h148.735  c-1.481,9.447-2.479,19.054-2.479,28.917c0,9.853,0.999,19.46,2.479,28.907H67.806C66.985,419.371,66.476,409.745,66.476,400z   M72.141,460.88h149.869c0.83,0,1.614-0.125,2.409-0.241c18.6,53.685,61.062,96.188,114.72,114.855c0,0.034-0.009,0.06-0.009,0.097  v152.268C203.954,702.813,97.19,596.046,72.141,460.88z M371.101,732.195V583.45c9.438,1.486,19.046,2.48,28.895,2.48  c9.864,0,19.475-0.999,28.929-2.484V732.19c-9.544,0.825-19.18,1.333-28.929,1.333C390.254,733.523,380.628,733.016,371.101,732.195  z M460.898,727.849V575.591c0-0.037-0.019-0.07-0.019-0.106c53.647-18.672,96.102-61.17,114.694-114.846  c0.794,0.116,1.588,0.241,2.407,0.241h149.867C702.811,596.039,596.056,702.802,460.898,727.849z"/>
	</symbol>
	<symbol id="repo" viewBox="0 0 64 64">
		<g id="Layer_2"><path class="st0" d="M8.2,35.7l10.3,6.7c1.2,0.8,2.9,0.7,4-0.2l7.6-6.4c0.9-0.8,0.8-2.2-0.2-2.8l-13.3-8.2c-0.6-0.4-1.4-0.3-2,0.1   l-6.7,5.3C6.1,31.7,6.2,34.4,8.2,35.7z"/><path class="st0" d="M14.6,23.3c0.6,0.5,1.4,0.5,2,0.1l13.3-8.2c1-0.6,1.1-2.1,0.2-2.8L22.5,6c-1.1-1-2.8-1-4-0.2L8.2,12.5   c-1.9,1.3-2.1,4-0.3,5.5L14.6,23.3z"/><path class="st0" d="M55.8,12.5L45.5,5.8c-1.2-0.8-2.9-0.7-4,0.2l-7.6,6.4c-0.9,0.8-0.8,2.2,0.2,2.8l13.3,8.2   c0.6,0.4,1.4,0.3,2-0.1l6.7-5.3C57.9,16.6,57.8,13.8,55.8,12.5z"/><path class="st0" d="M56.1,30.2l-6.7-5.3c-0.6-0.5-1.4-0.5-2-0.1L34.1,33c-1,0.6-1.1,2.1-0.2,2.8l7.6,6.4c1.1,1,2.8,1,4,0.2   l10.3-6.7C57.8,34.4,57.9,31.7,56.1,30.2z"/><path class="st0" d="M16.4,49.9l9.5,5.7c3.8,2.3,8.5,2.3,12.3,0l9.5-5.7c0.4-0.3,0.7-0.8,0.7-1.3v0c0-1.2-1.3-1.9-2.3-1.2l-1.7,1.1   c-0.5,0.4-1.3,0.3-1.8-0.1l-9.7-8c-0.6-0.5-1.3-0.5-1.9,0l-9.7,8c-0.5,0.4-1.2,0.5-1.8,0.1L18,47.4c-1-0.6-2.3,0.1-2.3,1.2v0   C15.7,49.1,16,49.6,16.4,49.9z"/></g>
	</symbol>
	<symbol id="exit" viewBox="0 0 48 48">
		<path d="M0 0h48v48h-48z" fill="none"/><path d="M20.17 31.17l2.83 2.83 10-10-10-10-2.83 2.83 5.17 5.17h-19.34v4h19.34l-5.17 5.17zm17.83-25.17h-28c-2.21 0-4 1.79-4 4v8h4v-8h28v28h-28v-8h-4v8c0 2.21 1.79 4 4 4h28c2.21 0 4-1.79 4-4v-28c0-2.21-1.79-4-4-4z"/>
	</symbol>
</svg>